<svg width="1804" height="840" viewBox="0 0 1804 840" fill="none" xmlns="http://www.w3.org/2000/svg">
<g clip-path="url(#clip0_162:572)">
<rect x="1.77026" y="293.478" width="1800" height="541.013" transform="rotate(0.159732 1.77026 293.478)" fill="#FFFDFD"/>
<path fill-rule="evenodd" clip-rule="evenodd" d="M0.262007 834.489L100.262 834.767C200.261 835.046 400.26 835.604 600.485 755.496C800.705 676.78 1001.15 516.008 1201.26 477.624C1401.37 437.849 1601.15 517.68 1701.04 558.292L1800.93 598.903L1801.76 298.496L1701.76 298.217C1601.76 297.938 1401.76 297.381 1201.77 296.823C1001.77 296.265 801.767 295.708 601.768 295.15C401.769 294.593 201.769 294.035 101.77 293.756L1.77026 293.478L0.262007 834.489Z" fill="#113399"/>
</g>
<path fill-rule="evenodd" clip-rule="evenodd" d="M1803.71 58.4367L1728.53 46.131C1653.34 33.8254 1502.98 7.88951 1354.46 7.13022C1203.97 6.3608 1053.35 30.7578 902.579 84.295C753.789 137.842 602.869 220.519 452.254 243.592C301.632 267.989 153.309 230.142 78.1506 212.538L2.99884 193.61L2.44354 302.223L77.6901 302.608C152.937 302.993 301.449 303.752 451.943 304.521C602.436 305.291 752.929 306.06 901.442 306.819C1051.93 307.589 1202.43 308.358 1352.92 309.128C1501.43 309.887 1651.93 310.656 1727.17 311.041L1802.42 311.426L1803.71 58.4367Z" fill="#113399"/>
<defs>
<clipPath id="clip0_162:572">
<rect width="1800" height="541.013" fill="white" transform="translate(1.77026 293.478) rotate(0.159732)"/>
</clipPath>
</defs>
</svg>
