<svg width="50" height="50" viewBox="0 0 50 50" fill="none" xmlns="http://www.w3.org/2000/svg">
<path d="M41.6666 8.33334H12.4999C10.202 8.33334 8.33325 10.2021 8.33325 12.5V22.9167H12.4999V16.6667L25.8333 26.6667C26.194 26.9368 26.6326 27.0828 27.0833 27.0828C27.5339 27.0828 27.9725 26.9368 28.3333 26.6667L41.6666 16.6667V35.4167H24.9999V39.5833H41.6666C43.9645 39.5833 45.8333 37.7146 45.8333 35.4167V12.5C45.8333 10.2021 43.9645 8.33334 41.6666 8.33334ZM27.0833 22.3958L13.8874 12.5H40.2791L27.0833 22.3958Z" fill="#F2A64A"/>
<path d="M4.16675 25H18.7501V29.1667H4.16675V25ZM8.33341 31.25H20.8334V35.4167H8.33341V31.25ZM14.5834 37.5H22.9167V41.6667H14.5834V37.5Z" fill="#F2A64A"/>
</svg>
