<svg width="50" height="50" viewBox="0 0 50 50" fill="none" xmlns="http://www.w3.org/2000/svg">
<path fill-rule="evenodd" clip-rule="evenodd" d="M38.3396 11.7354C36.607 9.99146 34.5456 8.6086 32.2747 7.66701C30.0039 6.72541 27.5687 6.24378 25.1104 6.25003C14.8021 6.25003 6.41042 14.6396 6.40625 24.9521C6.40625 28.2479 7.26667 31.4646 8.90208 34.3021L6.25 43.9917L16.1646 41.3896C18.9071 42.8825 21.9796 43.6653 25.1021 43.6667H25.1104C35.4167 43.6667 43.8083 35.2771 43.8125 24.9646C43.8196 22.5073 43.3396 20.0729 42.4002 17.8022C41.4608 15.5315 40.0807 13.4696 38.3396 11.7354ZM25.1104 40.5104H25.1042C22.3198 40.5107 19.5867 39.7616 17.1917 38.3417L16.625 38.0042L10.7417 39.5479L12.3104 33.8125L11.9417 33.225C10.385 30.7467 9.5609 27.8787 9.56458 24.9521C9.56875 16.3813 16.5417 9.40836 25.1167 9.40836C27.1589 9.40383 29.1817 9.80437 31.068 10.5868C32.9544 11.3692 34.6668 12.518 36.1062 13.9667C37.5534 15.4085 38.7004 17.1227 39.481 19.0104C40.2616 20.8982 40.6604 22.9219 40.6542 24.9646C40.65 33.5354 33.6771 40.5104 25.1104 40.5104ZM33.6375 28.8667C33.1687 28.6313 30.8729 27.5021 30.4437 27.3459C30.0167 27.1896 29.7062 27.1125 29.3937 27.5792C29.0812 28.0459 28.1854 29.0979 27.9125 29.4104C27.6396 29.7229 27.3667 29.7604 26.9 29.5271C26.4333 29.2938 24.9271 28.8 23.1417 27.2084C21.7521 25.9688 20.8146 24.4396 20.5417 23.9709C20.2687 23.5021 20.5125 23.25 20.7479 23.0167C20.9583 22.8084 21.2146 22.4709 21.4479 22.1979C21.6812 21.925 21.7583 21.7313 21.9146 21.4188C22.0708 21.1063 21.9937 20.8334 21.875 20.6C21.7583 20.3646 20.8229 18.0646 20.4333 17.1292C20.0562 16.2229 19.6708 16.3438 19.3833 16.3313C19.0856 16.3191 18.7876 16.3135 18.4896 16.3146C18.2526 16.3207 18.0195 16.3756 17.8047 16.476C17.59 16.5763 17.3983 16.72 17.2417 16.8979C16.8125 17.3667 15.6062 18.4959 15.6062 20.7959C15.6062 23.0959 17.2812 25.3188 17.5146 25.6313C17.7479 25.9438 20.8104 30.6625 25.4979 32.6875C26.6146 33.1688 27.4854 33.4563 28.1625 33.6729C29.2812 34.0292 30.3 33.9771 31.1062 33.8584C32.0042 33.725 33.8708 32.7292 34.2604 31.6375C34.65 30.5459 34.65 29.6104 34.5333 29.4146C34.4167 29.2188 34.1021 29.1 33.6375 28.8667Z" fill="#F3A94A"/>
</svg>
