<svg width="224" height="140" viewBox="0 0 224 140" fill="none" xmlns="http://www.w3.org/2000/svg">
<path d="M43.6743 116.331C43.6743 116.331 53.6917 101.327 56.307 95.4641C58.9222 89.6009 58.1552 72.1991 58.1552 72.1991L65.4003 60.1796C65.4003 60.1796 116.227 33.983 131.013 28.3191C145.798 22.6553 163.671 13.8488 168.901 15.8071C174.132 17.7654 173.217 22.0631 167.053 26.3608C164.521 28.1198 161.093 29.9726 158.995 31.9015C157.285 33.4787 155.151 38.4331 157.202 40.192C159.66 42.2969 166.018 39.2422 169.437 41.3119C171.239 42.4025 171.129 44.3197 169.927 45.6976C168.726 47.0754 166.684 48.0428 164.808 49.1041C159.808 51.848 155.566 55.2956 151.593 58.5965C147.527 61.9913 149.855 66.805 150.179 70.7157C150.567 75.4707 151.611 81.1404 149.495 85.7899C146.103 93.2126 126.226 102.4 117.604 107.097C108.982 111.793 101.737 127.424 101.737 127.424L43.6743 116.331Z" fill="white"/>
<path d="M101.755 127.717H101.616L43.5448 116.624C43.4818 116.613 43.4236 116.592 43.3741 116.565C43.3247 116.538 43.2852 116.504 43.2583 116.466C43.2332 116.428 43.2202 116.387 43.2202 116.346C43.2202 116.304 43.2332 116.264 43.2583 116.226C43.36 116.079 53.2942 101.175 55.8725 95.3937C58.4508 89.6126 57.7208 72.3925 57.7208 72.2225C57.7111 72.1856 57.7111 72.148 57.7208 72.1111L64.9658 60.0857C64.9947 60.0378 65.0424 59.9954 65.1045 59.9626C65.6127 59.6988 116.134 33.6898 130.781 28.0787C134.478 26.654 138.442 25.0181 142.259 23.4351C154.457 18.3752 164.983 14.013 169.151 15.5667C170.089 15.8918 170.897 16.3488 171.514 16.9027C172.13 17.4565 172.539 18.0926 172.709 18.7621C173.245 21.0253 171.369 23.7869 167.413 26.5484C166.489 27.1347 165.565 27.7738 164.539 28.4188C162.661 29.5335 160.939 30.7498 159.392 32.0539C157.682 33.6311 155.696 38.4096 157.59 40.0044C158.644 40.9073 160.603 40.7021 162.858 40.4676C165.112 40.233 167.894 39.9458 169.779 41.0891C171.664 42.2324 171.627 44.3959 170.343 45.8265C169.153 47.0241 167.628 48.0734 165.842 48.9223L165.122 49.3151C160.178 52.0297 155.88 55.4714 151.981 58.7607C148.959 61.276 149.596 64.6238 150.216 67.8544C150.4 68.8453 150.576 69.7775 150.659 70.6922C150.715 71.4251 150.789 72.1814 150.872 72.9554C151.288 77.1358 151.796 81.8791 149.948 85.8543C147.083 92.1631 132.593 99.6738 122.945 104.675C121.097 105.637 119.332 106.551 117.918 107.319C109.499 111.899 102.272 127.354 102.208 127.506C102.172 127.581 102.093 127.644 101.986 127.682C101.915 127.706 101.835 127.718 101.755 127.717ZM44.3026 116.143L101.441 127.061C102.494 124.856 109.222 111.271 117.317 106.874C118.74 106.1 120.505 105.185 122.363 104.218C131.881 99.2868 146.27 91.8289 149.06 85.7078C150.835 81.8263 150.363 77.1417 149.985 73.0023C149.911 72.2283 149.827 71.472 149.772 70.7332C149.698 69.842 149.523 68.9157 149.338 67.9365C148.728 64.7411 148.035 61.1235 151.278 58.4206C155.252 55.102 159.54 51.6369 164.558 48.8871L165.279 48.4884C166.976 47.6822 168.432 46.6893 169.576 45.5568C170.648 44.3197 170.86 42.5431 169.179 41.5229C167.497 40.5028 165.297 40.8252 163.052 41.0598C160.806 41.2943 158.274 41.5523 156.888 40.362C154.614 38.4213 156.962 33.3262 158.671 31.7373C160.243 30.3978 162.003 29.1516 163.93 28.0142C164.937 27.3751 165.898 26.7712 166.767 26.1615C170.463 23.5758 172.311 20.8846 171.831 18.8618C171.692 18.2736 171.34 17.714 170.801 17.2275C170.262 16.741 169.551 16.3409 168.726 16.0592C165.029 14.6872 153.737 19.3778 142.795 23.9159C138.978 25.4989 135.023 27.1406 131.299 28.5654C117.012 34.0415 68.3204 59.0538 65.8253 60.3554L58.6634 72.2518C58.7188 73.5476 59.3565 89.8413 56.8151 95.5462C54.357 100.899 45.7257 113.992 44.3026 116.143Z" fill="#231F20"/>
<path d="M157.461 0.263916H92.7633C90.1552 0.263916 88.041 1.60531 88.041 3.25999V91.0316C88.041 92.6863 90.1552 94.0276 92.7633 94.0276H157.461C160.069 94.0276 162.183 92.6863 162.183 91.0316V3.25999C162.183 1.60531 160.069 0.263916 157.461 0.263916Z" fill="white"/>
<path d="M157.461 94.3266H92.7726C91.3952 94.3266 90.0742 93.9794 89.1003 93.3615C88.1263 92.7435 87.5791 91.9054 87.5791 91.0315V3.26578C87.5913 2.39696 88.1438 1.56635 89.1165 0.954724C90.0892 0.343099 91.4032 -3.43845e-05 92.7726 2.58433e-09H157.461C158.837 0.0015532 160.155 0.349399 161.127 0.967182C162.099 1.58496 162.645 2.4222 162.645 3.2951V91.0315C162.645 91.9044 162.099 92.7416 161.127 93.3594C160.155 93.9772 158.837 94.325 157.461 94.3266ZM92.7726 0.586316C91.6403 0.586316 90.5544 0.871706 89.7537 1.3797C88.953 1.8877 88.5032 2.57668 88.5032 3.2951V91.0315C88.5032 91.7499 88.953 92.4389 89.7537 92.9469C90.5544 93.4549 91.6403 93.7403 92.7726 93.7403H157.461C158.592 93.7387 159.675 93.4527 160.474 92.9448C161.272 92.437 161.721 91.7489 161.721 91.0315V3.26578C161.709 2.55348 161.255 1.87287 160.458 1.37137C159.66 0.869858 158.584 0.587817 157.461 0.586316H92.7726Z" fill="#231F20"/>
<path d="M158.44 8.7478H92.0884V80.9116H158.44V8.7478Z" fill="#148ACC"/>
<path d="M132.195 91.4653H119.572C118.68 91.4653 117.824 91.2405 117.193 90.8402C116.562 90.44 116.208 89.8971 116.208 89.3311V86.2705C116.208 85.704 116.562 85.1605 117.193 84.7594C117.823 84.3582 118.679 84.132 119.572 84.1305H132.195C133.088 84.132 133.944 84.3582 134.574 84.7594C135.205 85.1605 135.559 85.704 135.559 86.2705V89.3311C135.559 89.8971 135.205 90.44 134.574 90.8402C133.943 91.2405 133.087 91.4653 132.195 91.4653ZM119.572 84.7168C118.924 84.7184 118.303 84.8827 117.846 85.174C117.389 85.4652 117.132 85.8595 117.132 86.2705V89.3311C117.132 89.7416 117.389 90.1353 117.847 90.4256C118.304 90.7159 118.925 90.879 119.572 90.879H132.195C132.842 90.879 133.463 90.7159 133.92 90.4256C134.378 90.1353 134.635 89.7416 134.635 89.3311V86.2705C134.635 85.8595 134.378 85.4652 133.921 85.174C133.464 84.8827 132.843 84.7184 132.195 84.7168H119.572Z" fill="#D1D3D4"/>
<path d="M130.643 4.76088H111.754C111.631 4.76088 111.513 4.72999 111.427 4.67501C111.34 4.62004 111.292 4.54547 111.292 4.46772C111.292 4.38997 111.34 4.3154 111.427 4.26042C111.513 4.20545 111.631 4.17456 111.754 4.17456H130.643C130.765 4.17456 130.883 4.20545 130.969 4.26042C131.056 4.3154 131.105 4.38997 131.105 4.46772C131.105 4.54547 131.056 4.62004 130.969 4.67501C130.883 4.72999 130.765 4.76088 130.643 4.76088Z" fill="#D1D3D4"/>
<path d="M135.827 4.62013H133.295C133.173 4.62013 133.055 4.58924 132.968 4.53427C132.882 4.47929 132.833 4.40472 132.833 4.32697C132.833 4.24922 132.882 4.17466 132.968 4.11968C133.055 4.0647 133.173 4.03381 133.295 4.03381H135.827C135.95 4.03381 136.067 4.0647 136.154 4.11968C136.241 4.17466 136.289 4.24922 136.289 4.32697C136.289 4.40472 136.241 4.47929 136.154 4.53427C136.067 4.58924 135.95 4.62013 135.827 4.62013Z" fill="#D1D3D4"/>
<path d="M155.076 41.3178C154.799 42.1286 154.834 42.97 155.181 43.7701C155.528 44.5702 156.175 45.3051 157.067 45.9119C157.958 46.5187 159.069 46.9794 160.303 47.2545C161.537 47.5296 162.857 47.611 164.151 47.4917C165.634 47.3448 167.037 46.9682 168.236 46.3953C169.339 45.8864 170.256 45.232 170.923 44.4769C171.59 43.7219 171.991 42.8841 172.099 42.0213C172.357 39.2012 168.605 36.7445 164.244 36.4044C160.159 36.0819 155.88 38.9549 155.076 41.3178Z" fill="white"/>
<path d="M163.033 47.8316C161.753 47.8347 160.489 47.6558 159.332 47.3081C158.175 46.9603 157.156 46.4525 156.35 45.8221C155.543 45.1916 154.969 44.4544 154.671 43.6648C154.372 42.8752 154.356 42.0531 154.624 41.259C155.548 38.6499 160.021 35.7711 164.299 36.1053C169.114 36.4806 172.829 39.1424 172.561 42.033C172.451 42.9386 172.032 43.8182 171.333 44.6109C170.634 45.4035 169.672 46.0904 168.513 46.6238C167.254 47.2318 165.778 47.6345 164.216 47.7965C163.824 47.8259 163.428 47.8376 163.033 47.8316ZM163.615 36.6916C160.067 36.6916 156.287 39.1718 155.529 41.3822C155.271 42.1462 155.308 42.9384 155.636 43.6915C155.965 44.4446 156.575 45.1362 157.415 45.7074C158.256 46.2786 159.301 46.7124 160.463 46.9721C161.624 47.2317 162.868 47.3093 164.087 47.1984C165.496 47.0578 166.829 46.6994 167.968 46.1548C169.023 45.6735 169.899 45.0523 170.538 44.3345C171.176 43.6167 171.56 42.8193 171.665 41.9978C171.896 39.4532 168.486 37.02 164.216 36.6858C164.013 36.674 163.81 36.6682 163.615 36.6682V36.6916Z" fill="#231F20"/>
<path d="M152.193 59.599C151.664 60.0763 151.313 60.6234 151.166 61.1993C151.019 61.7751 151.079 62.3646 151.343 62.9235C151.77 63.5793 152.431 64.1634 153.274 64.6296C155.501 65.9664 158.542 66.9104 161.591 66.6231C163.443 66.3808 165.183 65.8756 166.683 65.1456C169.363 63.973 171.932 62.4954 172.819 60.5195C174.104 57.6525 170.832 53.4838 165.537 53.8824C161.157 54.2284 154.512 57.3183 152.193 59.599Z" fill="white"/>
<path d="M160.464 66.9691C157.616 66.8978 154.918 66.1385 152.923 64.8466C152.023 64.3495 151.32 63.7248 150.872 63.0232C150.587 62.4207 150.522 61.785 150.682 61.1643C150.842 60.5435 151.223 59.9541 151.796 59.4408C154.171 57.0955 160.935 53.9528 165.436 53.5776C166.517 53.4982 167.612 53.5949 168.617 53.8586C169.623 54.1222 170.506 54.5441 171.184 55.0844C172.177 55.8353 172.879 56.7233 173.234 57.6774C173.588 58.6314 173.586 59.6249 173.226 60.5782C172.45 62.3372 170.454 63.8323 166.914 65.3684C165.353 66.1237 163.543 66.6448 161.619 66.8928C161.238 66.9357 160.852 66.9612 160.464 66.9691ZM152.581 59.7574C152.09 60.1964 151.762 60.7006 151.623 61.2318C151.483 61.7631 151.536 62.3074 151.777 62.8238C152.187 63.4403 152.82 63.9867 153.626 64.4186C156.056 65.8785 158.93 66.5762 161.527 66.33C163.306 66.0911 164.979 65.6045 166.425 64.9052C169.77 63.4453 171.664 62.0264 172.376 60.4375C172.697 59.5774 172.697 58.6816 172.377 57.8214C172.056 56.9613 171.423 56.1606 170.528 55.4831C169.947 55.0198 169.19 54.657 168.329 54.4285C167.468 54.1999 166.53 54.1129 165.602 54.1756C161.397 54.5098 154.845 57.5763 152.618 59.7574H152.581Z" fill="#231F20"/>
<path d="M154.882 71.5658C153.852 72.0162 152.991 72.6046 152.359 73.2895C151.739 74.0858 151.488 74.9775 151.635 75.8608C151.782 76.7441 152.322 77.5827 153.191 78.2791C154.08 78.9631 155.176 79.5275 156.414 79.9393C157.652 80.3511 159.007 80.602 160.399 80.6771C162.039 80.8033 163.703 80.7082 165.281 80.398C166.86 80.0878 168.317 79.5695 169.557 78.8771C170.78 78.1704 171.693 77.2739 172.205 76.2758C172.717 75.2776 172.811 74.2121 172.477 73.184C170.481 67.8016 160.168 69.1267 154.882 71.5658Z" fill="white"/>
<path d="M161.74 81.0172C161.278 81.0172 160.816 81.0172 160.344 80.9703C158.889 80.892 157.473 80.6291 156.181 80.197C154.889 79.7649 153.746 79.1725 152.822 78.455C151.905 77.7118 151.338 76.8194 151.186 75.8805C151.034 74.9417 151.303 73.9948 151.963 73.1488C152.624 72.4262 153.53 71.8055 154.615 71.3312C158.182 69.6837 163.985 68.5286 168.162 69.5136C169.377 69.8048 170.453 70.2895 171.286 70.921C172.12 71.5526 172.683 72.3098 172.922 73.1195C173.283 74.1976 173.191 75.3169 172.656 76.3655C172.121 77.414 171.161 78.3549 169.872 79.0941C167.631 80.3527 164.732 81.0381 161.74 81.0172ZM155.16 71.8061C154.186 72.2309 153.369 72.7851 152.767 73.4302C152.186 74.1794 151.952 75.0175 152.091 75.8475C152.23 76.6776 152.736 77.4658 153.552 78.1208C154.402 78.7746 155.45 79.3137 156.634 79.7065C157.818 80.0992 159.114 80.3375 160.446 80.4074C162.022 80.5288 163.621 80.438 165.139 80.141C166.656 79.8439 168.058 79.3474 169.253 78.6836C170.421 78.0157 171.292 77.1647 171.779 76.216C172.265 75.2672 172.35 74.254 172.025 73.2778C171.825 72.5611 171.335 71.8898 170.603 71.3296C169.87 70.7694 168.921 70.3396 167.848 70.0824C163.967 69.1736 158.524 70.2759 155.16 71.8413V71.8061Z" fill="#231F20"/>
<path d="M46.6035 102.254L53.2294 93.9513L115.922 109.882L108.843 117.111L46.6035 102.254Z" fill="#148ACC"/>
<path d="M113.925 114.719L45.9843 98.296L22.8813 121.315L97.282 139.203L113.925 114.719Z" fill="#231F20"/>
<path d="M97.2822 139.496C97.2301 139.501 97.1772 139.501 97.1251 139.496L22.7152 121.614C22.6519 121.598 22.595 121.574 22.5486 121.542C22.5022 121.511 22.4676 121.473 22.4472 121.432C22.4177 121.393 22.4023 121.349 22.4023 121.306C22.4023 121.262 22.4177 121.219 22.4472 121.18L45.5502 98.1669C45.6071 98.1098 45.6934 98.0669 45.7945 98.0456C45.8955 98.0242 46.0051 98.0256 46.1046 98.0496L114.036 114.466C114.154 114.496 114.249 114.553 114.304 114.625C114.329 114.662 114.342 114.702 114.342 114.742C114.342 114.782 114.329 114.822 114.304 114.859L97.6704 139.338C97.6332 139.384 97.5778 139.422 97.5097 139.45C97.4416 139.478 97.3631 139.494 97.2822 139.496ZM23.5469 121.168L97.0142 138.828L113.279 114.883L46.1416 98.6535L23.5469 121.168Z" fill="#231F20"/>
<path d="M58.2847 72.7032C58.2847 72.7032 58.7467 47.562 63.3673 42.5724C67.9879 37.5829 82.5705 16.6221 86.4702 16.4755C90.37 16.3289 94.4361 23.9158 91.0077 30.6643C88.9974 34.6409 86.0365 38.398 82.2285 41.8044C82.2285 41.8044 93.7061 49.573 87.459 63.4981" fill="white"/>
<path d="M58.2844 73.0081C58.2238 73.0074 58.1639 72.999 58.1083 72.9836C58.0527 72.9681 58.0025 72.9459 57.9604 72.9181C57.9184 72.8904 57.8853 72.8576 57.8632 72.8217C57.8411 72.7859 57.8304 72.7476 57.8316 72.7091C57.8316 71.683 58.3491 47.433 62.979 42.4376C64.3836 40.9132 66.7309 37.8995 69.4478 34.3992C77.6724 23.8103 83.7069 16.2996 86.4885 16.2234C87.505 16.1765 88.5493 16.5693 89.4919 17.3432C92.4768 19.794 94.1125 25.6337 91.414 30.7757C89.4036 34.7028 86.4988 38.4223 82.792 41.8161C84.4554 43.0884 93.595 50.8512 87.8839 63.6036C87.8675 63.6421 87.8394 63.6782 87.801 63.7098C87.7626 63.7414 87.7149 63.7678 87.6604 63.7877C87.6059 63.8076 87.5457 63.8205 87.4834 63.8256C87.4211 63.8307 87.3578 63.828 87.2971 63.8176C87.2364 63.8072 87.1796 63.7893 87.1298 63.765C87.08 63.7407 87.0382 63.7103 87.0069 63.6758C86.9756 63.6412 86.9553 63.6031 86.9472 63.5635C86.9391 63.524 86.9434 63.4838 86.9598 63.4453C90.148 56.3391 88.5862 50.8981 86.7103 47.6148C85.6372 45.5872 83.983 43.7028 81.831 42.0565C81.7618 42.0038 81.7239 41.9374 81.7239 41.8689C81.7239 41.8003 81.7618 41.7339 81.831 41.6812C85.6003 38.2969 88.5357 34.5682 90.5361 30.6233C93.0867 25.6631 91.5989 20.0696 88.7618 17.7243C88.5248 17.4759 88.2004 17.2657 87.8141 17.1101C87.4277 16.9545 86.9898 16.8577 86.5347 16.8273C84.0858 16.9211 75.4453 28.0552 70.2702 34.7099C67.5533 38.2278 65.1968 41.2415 63.8014 42.7835C59.2917 47.6441 58.7835 72.5156 58.7835 72.7619C58.7632 72.8349 58.7009 72.9005 58.6087 72.946C58.5165 72.9915 58.4009 73.0136 58.2844 73.0081Z" fill="#231F20"/>
<path d="M46.2154 118.09C48.8949 118.09 51.067 116.712 51.067 115.012C51.067 113.312 48.8949 111.934 46.2154 111.934C43.5359 111.934 41.3638 113.312 41.3638 115.012C41.3638 116.712 43.5359 118.09 46.2154 118.09Z" fill="white"/>
<path d="M44.8016 41.7223C44.7127 41.724 44.6252 41.7076 44.5521 41.6754L20.2386 31.5966C20.1357 31.5539 20.0637 31.4869 20.0386 31.4105C20.0135 31.3341 20.0372 31.2544 20.1046 31.1891C20.172 31.1238 20.2775 31.0782 20.398 31.0622C20.5184 31.0463 20.6439 31.0614 20.7469 31.1041L45.0696 41.1829C45.173 41.2261 45.2456 41.2933 45.2715 41.3701C45.2974 41.4469 45.2747 41.5271 45.2082 41.5933C45.1625 41.6344 45.1015 41.6677 45.0305 41.6903C44.9596 41.7128 44.8809 41.7238 44.8016 41.7223Z" fill="#D1D3D4"/>
<path d="M34.5808 61.018L0.443963 60.0154C0.383269 60.0139 0.323638 60.0048 0.268484 59.9887C0.213331 59.9725 0.163739 59.9496 0.12254 59.9213C0.081341 59.893 0.0493485 59.8598 0.0283884 59.8236C0.0074282 59.7875 -0.00209228 59.749 0.000383953 59.7105C0.00971378 59.6338 0.0644343 59.5621 0.153562 59.5099C0.24269 59.4577 0.359635 59.4289 0.480929 59.4291L34.6363 60.4317C34.7588 60.4377 34.8731 60.4732 34.9556 60.531C35.0381 60.5888 35.0826 60.6645 35.0799 60.7424C35.0704 60.8207 35.0127 60.8935 34.9194 60.9451C34.826 60.9967 34.7044 61.0229 34.5808 61.018Z" fill="#D1D3D4"/>
<path d="M199.388 39.4767C199.294 39.475 199.202 39.4558 199.125 39.4214C199.048 39.387 198.988 39.3389 198.954 39.2832C198.912 39.2101 198.918 39.1295 198.97 39.0591C199.022 38.9888 199.116 38.9344 199.231 38.9079L219.294 34.2174C219.409 34.191 219.536 34.1947 219.647 34.2277C219.758 34.2606 219.843 34.3202 219.885 34.3933C219.907 34.429 219.918 34.4672 219.916 34.5056C219.915 34.544 219.901 34.5818 219.876 34.6168C219.851 34.6518 219.815 34.6833 219.771 34.7093C219.726 34.7354 219.674 34.7555 219.617 34.7685L199.545 39.4591C199.495 39.471 199.442 39.477 199.388 39.4767Z" fill="#D1D3D4"/>
<path d="M223.535 72.3339H223.424L201.19 68.8981C201.071 68.88 200.969 68.8328 200.905 68.7669C200.841 68.701 200.82 68.6217 200.848 68.5463C200.862 68.5084 200.888 68.4727 200.924 68.4411C200.96 68.4096 201.006 68.383 201.058 68.3628C201.111 68.3426 201.169 68.3293 201.23 68.3235C201.29 68.3178 201.352 68.3198 201.412 68.3294L223.646 71.7652C223.765 71.7833 223.867 71.8304 223.931 71.8963C223.995 71.9623 224.016 72.0416 223.988 72.117C223.961 72.1799 223.902 72.2354 223.82 72.2747C223.738 72.314 223.638 72.3348 223.535 72.3339Z" fill="#D1D3D4"/>
<path d="M188.299 113.71C188.232 113.71 188.167 113.701 188.107 113.684C188.046 113.667 187.992 113.642 187.947 113.611L174.945 103.983C174.905 103.955 174.874 103.921 174.855 103.885C174.835 103.849 174.827 103.81 174.832 103.772C174.836 103.734 174.852 103.696 174.88 103.662C174.907 103.628 174.945 103.598 174.991 103.573C175.079 103.519 175.197 103.489 175.319 103.489C175.442 103.489 175.559 103.519 175.647 103.573L188.65 113.2C188.69 113.229 188.721 113.262 188.74 113.299C188.759 113.335 188.767 113.373 188.763 113.412C188.759 113.45 188.742 113.487 188.715 113.521C188.688 113.555 188.65 113.586 188.603 113.611C188.525 113.666 188.416 113.702 188.299 113.71Z" fill="#D1D3D4"/>
<path d="M25.8295 86.7748C25.7271 86.7748 25.6275 86.7536 25.5458 86.7144C25.4641 86.6753 25.4047 86.6203 25.3766 86.5579C25.3614 86.5205 25.3578 86.4816 25.3663 86.4434C25.3748 86.4052 25.395 86.3685 25.4259 86.3352C25.4569 86.302 25.4978 86.273 25.5464 86.2498C25.595 86.2266 25.6504 86.2098 25.7093 86.2002L38.2588 84.0895C38.3177 84.0798 38.379 84.0776 38.4392 84.0829C38.4994 84.0883 38.5574 84.1012 38.6097 84.1208C38.6621 84.1404 38.7079 84.1664 38.7444 84.1972C38.7809 84.2281 38.8075 84.2632 38.8225 84.3006C38.8537 84.3752 38.8372 84.4546 38.7767 84.5216C38.7161 84.5885 38.6164 84.6376 38.4991 84.6582L25.9496 86.7689L25.8295 86.7748Z" fill="#D1D3D4"/>
</svg>
