<svg width="225" height="140" viewBox="0 0 225 140" fill="none" xmlns="http://www.w3.org/2000/svg">
<path d="M213.069 16.514V132.681C213.069 134.132 212.493 135.523 211.467 136.549C210.441 137.575 209.049 138.152 207.598 138.152H6.46569C5.01825 138.146 3.63193 137.567 2.61033 136.542C1.58873 135.517 1.01513 134.128 1.01514 132.681V16.514H213.069Z" fill="white"/>
<path d="M207.598 139.187H6.46558C5.61385 139.184 4.77098 139.014 3.98509 138.685C3.19921 138.357 2.48571 137.877 1.88533 137.273C1.28495 136.669 0.809445 135.952 0.485965 135.164C0.162485 134.376 -0.00263814 133.533 3.18696e-05 132.681V16.514C3.18696e-05 16.2448 0.106968 15.9867 0.297318 15.7963C0.487667 15.606 0.745837 15.499 1.01503 15.499H213.069C213.338 15.499 213.596 15.606 213.787 15.7963C213.977 15.9867 214.084 16.2448 214.084 16.514V132.681C214.085 133.534 213.918 134.379 213.593 135.167C213.268 135.956 212.791 136.673 212.188 137.277C211.586 137.881 210.871 138.361 210.083 138.689C209.296 139.016 208.451 139.186 207.598 139.187ZM2.03003 17.529V132.681C2.03271 133.862 2.50303 134.994 3.33808 135.829C4.17314 136.664 5.30494 137.134 6.48588 137.137H207.598C208.779 137.134 209.911 136.664 210.746 135.829C211.581 134.994 212.051 133.862 212.054 132.681V17.529H2.03003Z" fill="#093F68"/>
<path d="M6.46569 1.01501H207.598C209.049 1.01501 210.441 1.59141 211.467 2.61739C212.493 3.64338 213.069 5.0349 213.069 6.48586V16.5242H1.01514V6.48586C1.01513 5.03841 1.58873 3.64995 2.61033 2.62455C3.63193 1.59915 5.01825 1.02039 6.46569 1.01501Z" fill="#148ACC"/>
<path d="M213.069 17.5291H1.015C0.745805 17.5291 0.487635 17.4221 0.297286 17.2318C0.106936 17.0414 0 16.7832 0 16.5141V6.48585C0.00266214 4.77002 0.684066 3.12494 1.89544 1.90977C3.1068 0.694596 4.74974 0.00804087 6.46555 0H207.598C209.317 0.00268436 210.965 0.686878 212.181 1.90263C213.397 3.11838 214.081 4.76652 214.084 6.48585V16.5141C214.084 16.7832 213.977 17.0414 213.787 17.2318C213.596 17.4221 213.338 17.5291 213.069 17.5291ZM2.03 15.4991H212.054V6.48585C212.051 5.30491 211.581 4.1731 210.746 3.33805C209.911 2.503 208.779 2.03268 207.598 2.03H6.46555C5.28461 2.03268 4.15281 2.503 3.31775 3.33805C2.4827 4.1731 2.01238 5.30491 2.0097 6.48585L2.03 15.4991Z" fill="#093F68"/>
<path d="M12.6367 10.3834C13.9541 10.3834 15.022 9.31551 15.022 7.99817C15.022 6.68083 13.9541 5.61292 12.6367 5.61292C11.3194 5.61292 10.2515 6.68083 10.2515 7.99817C10.2515 9.31551 11.3194 10.3834 12.6367 10.3834Z" fill="#F56132"/>
<path d="M12.6369 5.62314C13.1095 5.62113 13.5721 5.75957 13.9659 6.02089C14.3597 6.28222 14.667 6.65464 14.8488 7.0909C15.0306 7.52716 15.0787 8.00758 14.987 8.47122C14.8952 8.93486 14.6679 9.3608 14.3337 9.695C13.9995 10.0292 13.5735 10.2566 13.1099 10.3483C12.6463 10.44 12.1658 10.3919 11.7296 10.2101C11.2933 10.0283 10.9209 9.72102 10.6596 9.32722C10.3983 8.93341 10.2598 8.47086 10.2618 7.99824C10.2645 7.36915 10.5156 6.76658 10.9604 6.32174C11.4053 5.8769 12.0078 5.62581 12.6369 5.62314ZM12.6369 3.59314C11.7632 3.59314 10.9092 3.85235 10.1829 4.33796C9.45658 4.82356 8.89068 5.51373 8.5568 6.3211C8.22292 7.12847 8.13608 8.01676 8.30727 8.87351C8.47845 9.73026 8.89997 10.517 9.51847 11.134C10.137 11.7511 10.9246 12.1708 11.7818 12.34C12.6389 12.5092 13.527 12.4204 14.3336 12.0846C15.1402 11.7489 15.8291 11.1814 16.313 10.454C16.7969 9.72657 17.0542 8.87193 17.0522 7.99824C17.0495 6.82901 16.5831 5.70857 15.7554 4.88274C14.9277 4.05692 13.8062 3.59314 12.6369 3.59314Z" fill="#093F68"/>
<path d="M23.5986 10.3834C24.916 10.3834 25.9839 9.31551 25.9839 7.99817C25.9839 6.68083 24.916 5.61292 23.5986 5.61292C22.2813 5.61292 21.2134 6.68083 21.2134 7.99817C21.2134 9.31551 22.2813 10.3834 23.5986 10.3834Z" fill="#FFBC0E"/>
<path d="M23.5987 5.62315C24.0709 5.62316 24.5325 5.76331 24.925 6.02585C25.3174 6.2884 25.6231 6.66153 25.8034 7.09796C25.9836 7.5344 26.0302 8.01452 25.9374 8.47749C25.8445 8.94046 25.6163 9.36545 25.2817 9.69862C24.9471 10.0318 24.5212 10.2582 24.0578 10.3491C23.5945 10.4399 23.1145 10.3913 22.6789 10.2092C22.2432 10.0271 21.8714 9.71976 21.6105 9.32618C21.3496 8.93259 21.2115 8.47044 21.2135 7.99826C21.2135 7.6855 21.2752 7.37582 21.3952 7.08699C21.5152 6.79817 21.6911 6.53588 21.9127 6.3152C22.1343 6.09452 22.3974 5.91979 22.6867 5.80103C22.976 5.68227 23.286 5.62181 23.5987 5.62315ZM23.5987 3.59315C22.7246 3.59114 21.8696 3.84865 21.1419 4.33303C20.4143 4.81741 19.8468 5.50687 19.5114 6.31406C19.1759 7.12126 19.0876 8.00986 19.2577 8.86728C19.4277 9.7247 19.8484 10.5123 20.4665 11.1304C21.0846 11.7485 21.8723 12.1693 22.7297 12.3393C23.5871 12.5093 24.4757 12.421 25.2829 12.0856C26.0901 11.7502 26.7796 11.1827 27.264 10.455C27.7483 9.72741 28.0058 8.87237 28.0038 7.99826C28.0011 6.83077 27.5362 5.71187 26.7106 4.88633C25.8851 4.0608 24.7662 3.59583 23.5987 3.59315Z" fill="#093F68"/>
<path d="M34.5508 10.3834C35.8681 10.3834 36.936 9.31551 36.936 7.99817C36.936 6.68083 35.8681 5.61292 34.5508 5.61292C33.2334 5.61292 32.1655 6.68083 32.1655 7.99817C32.1655 9.31551 33.2334 10.3834 34.5508 10.3834Z" fill="#70CC40"/>
<path d="M34.5508 5.62306C35.023 5.62307 35.4845 5.76322 35.877 6.02577C36.2695 6.28831 36.5752 6.66144 36.7554 7.09788C36.9356 7.53432 36.9823 8.01443 36.8894 8.4774C36.7966 8.94037 36.5684 9.36536 36.2338 9.69854C35.8992 10.0317 35.4732 10.2581 35.0099 10.349C34.5465 10.4398 34.0666 10.3912 33.6309 10.2091C33.1953 10.027 32.8234 9.71967 32.5626 9.32609C32.3017 8.9325 32.1635 8.47035 32.1655 7.99817C32.1682 7.36732 32.4207 6.76322 32.8677 6.3181C33.3148 5.87297 33.9199 5.62306 34.5508 5.62306ZM34.5508 3.59306C33.6762 3.58905 32.8202 3.84483 32.0912 4.32799C31.3623 4.81114 30.7932 5.49989 30.4562 6.30691C30.1192 7.11392 30.0295 8.00283 30.1983 8.86092C30.3672 9.719 30.7871 10.5076 31.4048 11.1267C32.0225 11.7458 32.8101 12.1676 33.6678 12.3384C34.5255 12.5093 35.4147 12.4216 36.2224 12.0865C37.0302 11.7513 37.7203 11.1839 38.2051 10.456C38.69 9.72815 38.9477 8.87271 38.9457 7.99817C38.943 6.82893 38.4767 5.70849 37.6489 4.88267C36.8212 4.05684 35.6997 3.59306 34.5305 3.59306H34.5508Z" fill="#093F68"/>
<path d="M223.036 26.9685H108.768V94.598H223.036V26.9685Z" fill="#148ACC"/>
<path d="M223.036 95.6129H108.767C108.498 95.6129 108.24 95.506 108.05 95.3157C107.859 95.1253 107.752 94.8671 107.752 94.5979V26.9685C107.752 26.6993 107.859 26.4411 108.05 26.2508C108.24 26.0604 108.498 25.9535 108.767 25.9535H223.036C223.305 25.9535 223.564 26.0604 223.754 26.2508C223.944 26.4411 224.051 26.6993 224.051 26.9685V94.5979C224.051 94.8671 223.944 95.1253 223.754 95.3157C223.564 95.506 223.305 95.6129 223.036 95.6129ZM109.782 93.5829H222.021V27.9835H109.782V93.5829Z" fill="#093F68"/>
<path d="M165.902 53.5514L108.768 94.598H223.036L165.902 53.5514Z" fill="#148ACC"/>
<path d="M223.036 95.613H108.767C108.553 95.6117 108.345 95.5427 108.173 95.4161C108 95.2894 107.872 95.1115 107.807 94.9078C107.742 94.7041 107.743 94.4849 107.809 94.2816C107.876 94.0784 108.005 93.9014 108.179 93.7759L165.313 52.7293C165.485 52.6069 165.691 52.5411 165.902 52.5411C166.113 52.5411 166.318 52.6069 166.49 52.7293L223.675 93.7759C223.849 93.9019 223.979 94.0798 224.045 94.284C224.112 94.4883 224.112 94.7084 224.045 94.9126C223.979 95.1168 223.849 95.2947 223.675 95.4206C223.501 95.5464 223.291 95.6138 223.077 95.613H223.036ZM111.924 93.583H219.889L165.902 54.7999L111.924 93.583Z" fill="#093F68"/>
<path d="M165.902 68.0151L108.768 26.9685H223.036L165.902 68.0151Z" fill="#148ACC"/>
<path d="M165.902 69.0301C165.69 69.0287 165.484 68.9613 165.313 68.8372L108.179 27.7906C108.006 27.6661 107.876 27.4902 107.809 27.288C107.742 27.0858 107.739 26.8674 107.803 26.664C107.868 26.4586 107.996 26.2791 108.169 26.1514C108.343 26.0236 108.552 25.9543 108.767 25.9535H223.036C223.251 25.9543 223.461 26.0236 223.634 26.1514C223.808 26.2791 223.936 26.4586 224 26.664C224.065 26.8664 224.065 27.084 223.999 27.2861C223.933 27.4883 223.806 27.6647 223.635 27.7906L166.49 68.8372C166.321 68.9652 166.114 69.0331 165.902 69.0301ZM111.924 27.9835L165.902 66.7666L219.89 27.9835H111.924Z" fill="#093F68"/>
<path d="M169.343 51.2372C169.343 51.43 169.261 51.6533 169.221 51.9172C169.183 52.1386 169.163 52.3626 169.16 52.5871C169.159 52.7301 169.198 52.8706 169.272 52.9931C169.326 53.0564 169.395 53.1053 169.473 53.1354C169.551 53.1655 169.635 53.1759 169.718 53.1657C169.942 53.1626 170.162 53.1033 170.358 52.9931C170.59 52.8561 170.785 52.6645 170.926 52.4349C171.107 52.1394 171.24 51.8175 171.322 51.4808C171.435 51.033 171.49 50.5724 171.484 50.1105C171.497 49.3698 171.359 48.6343 171.078 47.9486C170.831 47.3486 170.453 46.8112 169.972 46.3753C169.48 45.9423 168.902 45.6173 168.277 45.4212C167.581 45.2031 166.854 45.0969 166.125 45.1066C165.332 45.0955 164.545 45.244 163.811 45.543C163.134 45.8161 162.523 46.2275 162.014 46.7509C161.509 47.2793 161.116 47.9041 160.857 48.588C160.58 49.3312 160.442 50.1192 160.451 50.9124C160.439 51.7392 160.591 52.5603 160.898 53.3281C161.183 54.0161 161.616 54.6329 162.167 55.1348C162.722 55.6349 163.371 56.0211 164.075 56.2716C164.848 56.5411 165.662 56.6751 166.48 56.6674C167.207 56.6732 167.93 56.5636 168.622 56.3426C169.246 56.1357 169.829 55.8233 170.347 55.419H172.611C171.898 56.4058 170.949 57.198 169.85 57.723C168.747 58.2493 167.54 58.52 166.318 58.5147C165.276 58.5163 164.244 58.3235 163.273 57.9463C162.336 57.5911 161.474 57.0606 160.735 56.3832C159.984 55.6868 159.387 54.8395 158.985 53.8968C158.582 52.9541 158.383 51.9372 158.401 50.9124C158.387 49.8647 158.598 48.8263 159.02 47.8674C159.413 46.9562 159.982 46.1318 160.695 45.4415C161.417 44.7522 162.265 44.2078 163.192 43.8378C164.158 43.444 165.193 43.244 166.237 43.2491C167.142 43.2514 168.04 43.4022 168.896 43.6957C169.746 43.9784 170.534 44.4192 171.22 44.9949C171.953 45.6032 172.538 46.3694 172.931 47.236C173.325 48.1027 173.517 49.0472 173.494 49.9989C173.507 50.6375 173.422 51.2743 173.24 51.8868C173.094 52.3673 172.875 52.8226 172.591 53.2367C172.339 53.5836 172.034 53.8885 171.687 54.1401C171.374 54.3599 171.032 54.5373 170.672 54.6679C170.36 54.7849 170.037 54.8732 169.708 54.9318C169.453 54.9707 169.195 54.9944 168.937 55.0028C168.497 55.045 168.058 54.9179 167.708 54.6476C167.485 54.4533 167.343 54.1811 167.313 53.8863C167.011 54.1854 166.669 54.4415 166.298 54.6476C165.807 54.9032 165.257 55.0257 164.704 55.0028C164.29 55.0068 163.88 54.9166 163.506 54.7389C163.147 54.5775 162.828 54.3383 162.573 54.0386C162.301 53.7194 162.094 53.3505 161.964 52.9525C161.817 52.5002 161.745 52.0272 161.75 51.5518C161.752 50.9651 161.848 50.3824 162.035 49.8263C162.219 49.2898 162.494 48.7887 162.847 48.3444C163.197 47.9205 163.633 47.5747 164.126 47.3294C164.663 47.0711 165.254 46.9424 165.851 46.9539C166.318 46.9387 166.783 47.0289 167.211 47.2178C167.591 47.4121 167.892 47.7311 168.064 48.1211L168.226 47.1975H170.155L169.343 51.2372ZM167.445 50.6789C167.459 50.2013 167.328 49.7304 167.069 49.329C166.939 49.15 166.765 49.0075 166.565 48.915C166.364 48.8226 166.143 48.7834 165.922 48.8012C165.633 48.7912 165.345 48.8527 165.085 48.9802C164.825 49.1076 164.6 49.2971 164.43 49.532C164.048 50.055 163.851 50.691 163.872 51.3387C163.872 51.56 163.892 51.7808 163.933 51.9984C163.97 52.2021 164.042 52.3978 164.146 52.577C164.257 52.7505 164.406 52.8963 164.582 53.0033C164.801 53.1174 165.046 53.1733 165.293 53.1657C165.644 53.1678 165.99 53.0915 166.308 52.9424C166.572 52.8021 166.798 52.6002 166.968 52.3537C167.129 52.109 167.246 51.8375 167.313 51.5518C167.387 51.2662 167.431 50.9737 167.445 50.6789Z" fill="white"/>
<path d="M98.4549 44.2743H52.3231C52.0539 44.2743 51.7958 44.1673 51.6054 43.977C51.4151 43.7866 51.3081 43.5285 51.3081 43.2593C51.3081 42.9901 51.4151 42.7319 51.6054 42.5415C51.7958 42.3512 52.0539 42.2443 52.3231 42.2443H98.4549C98.7241 42.2443 98.9822 42.3512 99.1726 42.5415C99.3629 42.7319 99.4699 42.9901 99.4699 43.2593C99.4699 43.5285 99.3629 43.7866 99.1726 43.977C98.9822 44.1673 98.7241 44.2743 98.4549 44.2743Z" fill="#093F68"/>
<path d="M88.8533 59.5298H23.599C23.3298 59.5298 23.0716 59.4228 22.8813 59.2325C22.6909 59.0421 22.584 58.784 22.584 58.5148C22.584 58.2456 22.6909 57.9874 22.8813 57.7971C23.0716 57.6067 23.3298 57.4998 23.599 57.4998H88.8533C89.1225 57.4998 89.3807 57.6067 89.571 57.7971C89.7614 57.9874 89.8683 58.2456 89.8683 58.5148C89.8683 58.784 89.7614 59.0421 89.571 59.2325C89.3807 59.4228 89.1225 59.5298 88.8533 59.5298Z" fill="#093F68"/>
<path d="M117.466 75.0897H45.8475C45.5783 75.0897 45.3202 74.9828 45.1298 74.7924C44.9395 74.6021 44.8325 74.3439 44.8325 74.0747C44.8325 73.8055 44.9395 73.5473 45.1298 73.357C45.3202 73.1666 45.5783 73.0597 45.8475 73.0597H117.466C117.735 73.0597 117.993 73.1666 118.184 73.357C118.374 73.5473 118.481 73.8055 118.481 74.0747C118.481 74.3439 118.374 74.6021 118.184 74.7924C117.993 74.9828 117.735 75.0897 117.466 75.0897Z" fill="#093F68"/>
<path d="M172.093 103.54H41.9806C36.2964 103.54 31.6885 108.146 31.6885 113.827C31.6885 119.509 36.2964 124.114 41.9806 124.114H172.093C177.778 124.114 182.386 119.509 182.386 113.827C182.386 108.146 177.778 103.54 172.093 103.54Z" fill="#FFBC0E"/>
<path d="M172.104 125.139H41.9907C38.9919 125.139 36.1159 123.948 33.9954 121.828C31.8749 119.707 30.6836 116.831 30.6836 113.832C30.6836 110.833 31.8749 107.957 33.9954 105.837C36.1159 103.716 38.9919 102.525 41.9907 102.525H172.114C175.113 102.525 177.989 103.716 180.109 105.837C182.23 107.957 183.421 110.833 183.421 113.832C183.421 116.831 182.23 119.707 180.109 121.828C177.989 123.948 175.113 125.139 172.114 125.139H172.104ZM41.9907 104.555C39.5303 104.555 37.1706 105.533 35.4308 107.272C33.691 109.012 32.7136 111.372 32.7136 113.832C32.7136 116.293 33.691 118.652 35.4308 120.392C37.1706 122.132 39.5303 123.109 41.9907 123.109H172.114C174.574 123.109 176.934 122.132 178.674 120.392C180.413 118.652 181.391 116.293 181.391 113.832C181.391 111.372 180.413 109.012 178.674 107.272C176.934 105.533 174.574 104.555 172.114 104.555H41.9907Z" fill="#093F68"/>
<path d="M95.603 111.366C95.4484 111.127 95.2204 110.946 94.9534 110.848C94.5166 110.666 94.0334 110.627 93.573 110.737C93.4132 110.777 93.2619 110.846 93.1264 110.94C92.9924 111.027 92.8811 111.146 92.8016 111.285C92.7175 111.44 92.6755 111.615 92.6798 111.792C92.6742 111.92 92.6989 112.047 92.7518 112.164C92.8047 112.28 92.8844 112.382 92.9843 112.462C93.215 112.628 93.4678 112.762 93.7354 112.858C94.0399 112.97 94.3647 113.081 94.7504 113.193C95.1085 113.287 95.4506 113.434 95.7654 113.629C96.0659 113.82 96.322 114.072 96.5165 114.37C96.736 114.741 96.8418 115.168 96.821 115.598C96.8328 116.019 96.7459 116.436 96.5673 116.816C96.4069 117.151 96.1705 117.443 95.8771 117.669C95.5757 117.906 95.2309 118.082 94.8621 118.187C94.4694 118.299 94.0626 118.353 93.6542 118.349C93.1284 118.353 92.606 118.264 92.1114 118.085C91.6119 117.904 91.1701 117.592 90.8325 117.182L91.9896 116.065C92.1722 116.348 92.4283 116.576 92.7306 116.725C93.0419 116.893 93.3918 116.977 93.7456 116.969C93.9277 116.966 94.1087 116.939 94.2835 116.887C94.4559 116.842 94.6202 116.77 94.7707 116.674C94.9139 116.575 95.0348 116.447 95.126 116.299C95.2124 116.14 95.2577 115.962 95.2579 115.781C95.266 115.644 95.2428 115.507 95.19 115.381C95.1372 115.254 95.0563 115.141 94.9534 115.05C94.7268 114.864 94.4691 114.72 94.1922 114.624C93.8606 114.493 93.5217 114.381 93.1772 114.289C92.8223 114.185 92.4815 114.039 92.1622 113.853C91.8599 113.669 91.6031 113.419 91.4111 113.122C91.1905 112.751 91.0846 112.324 91.1066 111.894C91.096 111.491 91.1905 111.092 91.3806 110.737C91.5556 110.42 91.7982 110.146 92.0911 109.935C92.3979 109.713 92.7416 109.548 93.1061 109.447C93.4869 109.346 93.8793 109.295 94.2734 109.295C94.7213 109.291 95.167 109.359 95.5929 109.498C96.0207 109.637 96.4124 109.87 96.7398 110.178L95.603 111.366Z" fill="#093F68"/>
<path d="M98.3638 109.518H104.078V110.909H99.9066V113.03H103.906V114.411H99.9472V116.745H104.342V118.136H98.4044L98.3638 109.518Z" fill="#093F68"/>
<path d="M105.814 109.518H107.844L112.026 115.923V109.518H113.558V118.146H111.61L107.347 111.528V118.146H105.814V109.518Z" fill="#093F68"/>
<path d="M115.507 109.518H118.907C119.466 109.518 120.021 109.608 120.551 109.782C121.076 109.952 121.559 110.23 121.968 110.599C122.377 110.968 122.704 111.42 122.926 111.924C123.183 112.527 123.307 113.177 123.292 113.832C123.307 114.455 123.178 115.073 122.916 115.638C122.653 116.203 122.265 116.7 121.78 117.09C121.343 117.444 120.844 117.712 120.308 117.882C119.797 118.052 119.263 118.141 118.724 118.146H115.507V109.518ZM118.186 116.755C118.645 116.76 119.102 116.705 119.547 116.593C119.945 116.494 120.321 116.318 120.653 116.075C120.976 115.847 121.234 115.539 121.404 115.182C121.597 114.759 121.691 114.297 121.678 113.832C121.689 113.374 121.606 112.918 121.434 112.492C121.29 112.14 121.06 111.829 120.765 111.589C120.464 111.35 120.119 111.174 119.75 111.071C119.326 110.958 118.889 110.903 118.45 110.909H117.05V116.755H118.186Z" fill="#093F68"/>
<path d="M173.931 114.939L153.651 109.752L158.848 130.032L163.415 125.454L176.458 138.487L182.386 132.549L169.353 119.516L173.931 114.939Z" fill="white"/>
<path d="M176.458 139.502C176.324 139.502 176.192 139.477 176.068 139.426C175.944 139.376 175.832 139.301 175.737 139.207L163.415 126.885L159.558 130.742C159.429 130.874 159.266 130.969 159.087 131.015C158.908 131.062 158.72 131.059 158.543 131.006C158.372 130.959 158.216 130.867 158.092 130.741C157.967 130.614 157.878 130.457 157.833 130.285L152.646 109.985C152.602 109.815 152.603 109.636 152.649 109.467C152.695 109.297 152.784 109.142 152.908 109.017C153.032 108.892 153.186 108.802 153.355 108.755C153.525 108.707 153.703 108.705 153.874 108.747L174.174 113.934C174.348 113.978 174.508 114.067 174.637 114.193C174.765 114.319 174.858 114.477 174.905 114.65C174.953 114.824 174.953 115.007 174.907 115.18C174.861 115.354 174.769 115.512 174.641 115.639L170.784 119.496L183.076 131.838C183.263 132.027 183.369 132.283 183.37 132.549C183.371 132.682 183.345 132.815 183.295 132.939C183.244 133.062 183.17 133.175 183.076 133.27L177.138 139.207C176.956 139.388 176.713 139.493 176.458 139.502ZM163.415 124.439C163.549 124.438 163.681 124.464 163.805 124.514C163.928 124.565 164.041 124.639 164.136 124.733L176.458 137.055L180.954 132.549L168.632 120.237C168.538 120.142 168.464 120.03 168.413 119.906C168.363 119.782 168.337 119.65 168.338 119.516C168.342 119.248 168.447 118.99 168.632 118.796L171.951 115.487L155.062 111.163L159.386 128.052L162.705 124.733C162.894 124.546 163.149 124.44 163.415 124.439Z" fill="#093F68"/>
</svg>
