<svg width="76" height="76" viewBox="0 0 76 76" fill="none" xmlns="http://www.w3.org/2000/svg">
<path d="M60.0074 36.3517C60.0074 32.3237 58.5586 29.5354 57.3189 27.3647L56.9389 26.7472C55.4331 24.3247 54.1174 22.1967 54.1174 19.7172C54.1174 16.7247 56.3879 13.9317 59.5894 13.9317C59.6844 13.9317 59.7746 13.9412 59.8649 13.9459L60.0121 13.9602C54.0089 8.44607 46.1519 5.39075 38.0006 5.40066C32.5983 5.39788 27.2802 6.73931 22.5255 9.30407C17.7708 11.8688 13.7289 15.5763 10.7641 20.0924C11.5241 20.1162 12.2509 20.1352 12.8636 20.1352C16.2694 20.1352 21.5466 19.7219 21.5466 19.7219C23.3041 19.6174 23.5131 22.1967 21.7556 22.4057C21.7556 22.4057 19.9934 22.6147 18.0269 22.7144L29.9019 58.0259L37.0269 36.6224L31.9444 22.7097C30.1916 22.6052 28.5291 22.4009 28.5291 22.4009C26.7716 22.2964 26.9806 19.6079 28.7334 19.7124C28.7334 19.7124 34.1199 20.1257 37.3214 20.1257C40.7319 20.1257 46.0139 19.7124 46.0139 19.7124C47.7714 19.6079 47.9756 22.1919 46.2181 22.4009C46.2181 22.4009 44.4511 22.6052 42.4894 22.7097L54.2694 57.7504L57.5184 46.8872L57.7749 46.0654C59.0574 41.9804 60.0026 38.9642 60.0026 36.3469L60.0074 36.3517ZM5.40139 37.9999C5.40107 44.1214 7.12412 50.1194 10.3734 55.3075C13.6226 60.4955 18.2668 64.664 23.7744 67.3359L8.21814 24.7284C6.35534 28.9046 5.39548 33.4271 5.40139 37.9999Z" fill="#113399"/>
<path d="M28.79 69.2694L38.575 40.8502L48.5928 68.3052C48.6593 68.4619 48.7353 68.6091 48.8255 68.7516C42.3676 71.0268 35.3568 71.2079 28.79 69.2694V69.2694ZM66.6 22.3584C66.7425 23.3986 66.8233 24.5102 66.8233 25.7119C66.8233 29.0179 66.2058 32.7371 64.3438 37.3874L54.3878 66.1724C61.7347 61.9038 67.1236 54.9344 69.4058 46.7497C71.688 38.565 70.6829 29.8127 66.6048 22.3584H66.6Z" fill="#113399"/>
<path fill-rule="evenodd" clip-rule="evenodd" d="M0 38C0 17.0478 17.0478 0 38 0C58.9475 0 76 17.0478 76 38C76 58.9522 58.9475 76 38 76C17.0478 76 0 58.9522 0 38ZM1.74325 38C1.74325 57.9928 18.0072 74.2568 38 74.2568C57.988 74.2568 74.252 57.9928 74.252 38C74.252 18.0025 57.988 1.74325 38 1.74325C18.0025 1.74325 1.74325 18.0025 1.74325 38Z" fill="#113399"/>
</svg>
