<svg width="350" height="335" viewBox="0 0 350 335" fill="none" xmlns="http://www.w3.org/2000/svg">
<g clip-path="url(#clip0_288_246)">
<path opacity="0.1" d="M276.824 287.324C316.489 287.324 348.644 278.886 348.644 268.478C348.644 258.069 316.489 249.632 276.824 249.632C237.158 249.632 205.003 258.069 205.003 268.478C205.003 278.886 237.158 287.324 276.824 287.324Z" fill="#113399"/>
<g opacity="0.5">
<path opacity="0.5" d="M215.306 47.5096C214.337 47.8812 213.151 48.8491 212.567 51.4962C211.422 56.6848 214.082 60.2127 213.206 65.6215C212.962 67.0563 212.499 68.4065 211.846 69.5853C210.776 71.5442 209.614 72.4709 208.486 73.8426C207.055 75.595 206.029 77.8684 205.533 80.3891C204.989 83.1714 204.944 86.0886 205.4 88.8992C205.801 91.2481 206.484 92.9593 207.082 94.8632C207.826 97.2915 208.407 99.8049 208.819 102.373C209.045 103.624 209.172 104.903 209.199 106.19C209.183 107.9 209.069 109.605 208.86 111.291L207.232 126.623C206.985 128.628 206.836 130.653 206.787 132.684C206.808 134.719 206.982 136.747 207.307 138.735C207.878 142.79 208.493 146.992 209.801 149.14C211.109 151.287 213.338 150.516 214.708 146.171C216.009 142.015 216.04 136.468 217.188 132.028C218.999 125.031 222.598 124.091 224.596 117.416C226.512 110.993 225.925 103.158 226.896 95.8541C227.576 90.6196 229.074 85.8484 229.955 80.6782C231.219 73.2324 231.093 65.5023 230.084 59.7769C229.316 55.0726 227.656 50.7187 225.265 47.1425C224.419 45.8809 223.512 44.757 222.448 44.6423C221.317 44.523 220.328 46.4452 219.21 47.0233C217.919 47.7068 216.621 47.0049 215.306 47.5096Z" fill="#113399"/>
<path opacity="0.5" d="M221.432 45.0322C221.432 45.0322 219.516 111.25 211.456 150.296" stroke="#535461" stroke-width="2" stroke-miterlimit="10"/>
<path opacity="0.5" d="M212.52 51.8081C212.52 51.8081 221.134 62.3964 219.499 82.5453" stroke="#535461" stroke-width="2" stroke-miterlimit="10"/>
<path opacity="0.5" d="M205.292 81.9397C205.292 81.9397 219.431 85.7796 218.381 97.1982" stroke="#535461" stroke-width="2" stroke-miterlimit="10"/>
<path opacity="0.5" d="M230.107 59.6392C230.107 59.6392 224.385 66.4013 219.288 85.5547" stroke="#535461" stroke-width="2" stroke-miterlimit="10"/>
<path opacity="0.5" d="M224.518 117.526C224.518 117.526 220.613 121.655 217.48 107.199" stroke="#535461" stroke-width="2" stroke-miterlimit="10"/>
<path opacity="0.5" d="M207.67 125.972C207.67 125.972 215.632 124.568 216.366 117.838" stroke="#535461" stroke-width="2" stroke-miterlimit="10"/>
</g>
<path d="M234.552 3.09679C232.581 3.49133 230.209 4.72541 229.234 8.52856C227.321 15.9881 233.135 21.6354 231.796 29.4298C231.396 31.5748 230.555 33.5233 229.37 35.0497C227.331 37.761 225 38.9446 222.791 40.7842C220.582 42.6239 218.289 45.5187 217.252 49.9595C216.257 54.2306 216.688 58.9467 217.725 62.47C218.761 65.9933 220.328 68.622 221.728 71.5214C223.429 75.0901 224.851 78.8877 225.972 82.8529C226.537 84.6602 226.916 86.5633 227.1 88.5094C227.28 90.895 227.052 93.4595 226.825 95.9689L224.803 118.329C224.534 121.302 224.263 124.321 224.415 127.183C224.589 130.482 225.313 133.363 226.026 136.175C227.562 142.24 229.207 148.562 232.105 151.901C235.004 155.241 239.55 154.526 242 148.314C244.331 142.4 243.903 134.239 245.891 127.885C249.024 117.87 256.391 117.058 259.935 107.553C263.333 98.4325 261.433 86.7661 262.799 76.1687C263.778 68.5761 266.429 61.7864 267.788 54.3132C269.748 43.546 268.807 32.1457 266.218 23.576C263.629 15.0063 259.534 8.89557 255.14 4.20242C253.278 2.20679 251.304 0.403852 249.092 0.0735416C246.74 -0.279707 244.861 2.3903 242.602 3.06468C239.972 3.80329 237.226 2.56004 234.552 3.09679Z" fill="#113399"/>
<path d="M247.016 0.426758C247.016 0.426758 248.871 97.6342 235.612 153.847" stroke="#535461" stroke-width="2" stroke-miterlimit="10"/>
<path d="M229.16 8.99634C229.16 8.99634 247.917 25.9706 246.31 55.4049" stroke="#535461" stroke-width="2" stroke-miterlimit="10"/>
<path d="M216.848 52.1982C216.848 52.1982 246.452 60.1165 245.283 76.7605" stroke="#535461" stroke-width="2" stroke-miterlimit="10"/>
<path d="M266.253 23.3281C266.253 23.3281 255.002 32.3704 246.14 59.7586" stroke="#535461" stroke-width="2" stroke-miterlimit="10"/>
<path d="M259.759 107.681C259.759 107.681 252.045 113.186 244.288 91.3445" stroke="#535461" stroke-width="2" stroke-miterlimit="10"/>
<path d="M225.632 117.411C225.632 117.411 241.987 116.618 242.918 106.823" stroke="#535461" stroke-width="2" stroke-miterlimit="10"/>
<path d="M22.8517 265.436C22.8517 265.436 25.6992 270.483 21.5366 278.052C17.3741 285.622 13.9353 292.054 15.3318 296.788C15.3318 296.788 21.6114 282.69 26.722 282.493C31.8327 282.296 28.4754 273.914 22.8517 265.436Z" fill="#113399"/>
<path opacity="0.1" d="M22.8516 265.436C23.1056 265.921 23.307 266.453 23.4496 267.014C28.4379 274.924 31.0918 282.305 26.3005 282.493C21.8355 282.667 16.4803 293.444 15.1958 296.169C15.2382 296.379 15.2892 296.586 15.3487 296.788C15.3487 296.788 21.6283 282.69 26.7389 282.493C31.8495 282.296 28.4753 273.914 22.8516 265.436Z" fill="black"/>
<path d="M28.1459 271.845C28.1459 273.616 27.9998 275.056 27.8061 275.056C27.6124 275.056 27.4663 273.62 27.4663 271.845C27.4663 270.07 27.6498 270.927 27.8299 270.927C28.01 270.927 28.1459 270.074 28.1459 271.845Z" fill="#FFD037"/>
<path d="M29.9638 273.955C28.8119 274.804 27.8095 275.332 27.7245 275.098C27.6396 274.864 28.4993 274.02 29.6512 273.175C30.8032 272.331 30.3478 272.946 30.4362 273.175C30.5245 273.405 31.1124 273.107 29.9638 273.955Z" fill="#FFD037"/>
<path d="M7.8187 265.436C7.8187 265.436 4.97116 270.483 9.13374 278.052C13.2963 285.622 16.7283 292.049 15.3385 296.784C15.3385 296.784 9.05898 282.686 3.94835 282.489C-1.16228 282.291 2.18818 273.914 7.8187 265.436Z" fill="#113399"/>
<path opacity="0.1" d="M7.8187 265.436C7.57056 265.922 7.37492 266.454 7.23764 267.014C2.24934 274.924 -0.404517 282.305 4.3867 282.493C8.8517 282.667 14.207 293.444 15.4914 296.169C15.4491 296.379 15.398 296.586 15.3385 296.788C15.3385 296.788 9.05898 282.69 3.94835 282.493C-1.16228 282.296 2.18818 273.914 7.8187 265.436Z" fill="black"/>
<path d="M2.51807 271.845C2.51807 273.616 2.66418 275.056 2.85787 275.056C3.05156 275.056 3.19767 273.62 3.19767 271.845C3.19767 270.07 3.01418 270.927 2.83408 270.927C2.65399 270.927 2.51807 270.074 2.51807 271.845Z" fill="#FFD037"/>
<path d="M0.699513 273.955C1.85144 274.804 2.85386 275.332 2.93881 275.098C3.02376 274.864 2.16406 274.02 1.01213 273.175C-0.1398 272.331 0.315537 272.946 0.227188 273.175C0.138839 273.405 -0.449019 273.107 0.699513 273.955Z" fill="#FFD037"/>
<path d="M3.42529 296.127C3.42529 296.127 11.3869 295.797 13.7859 293.49C16.1849 291.182 26.0188 288.443 26.627 292.113C27.2353 295.783 38.5915 310.514 29.6037 310.611C20.6159 310.707 8.71942 308.72 6.32381 306.752C3.9282 304.784 3.42529 296.127 3.42529 296.127Z" fill="#A8A8A8"/>
<path opacity="0.2" d="M29.7634 309.335C20.7756 309.432 8.87912 307.445 6.48352 305.477C4.65878 303.977 3.9316 298.596 3.69034 296.114H3.42529C3.42529 296.114 3.9282 304.784 6.32381 306.753C8.71942 308.721 20.6159 310.712 29.6037 310.611C32.1998 310.583 33.0935 309.335 33.0459 307.491C32.6857 308.62 31.6969 309.317 29.7634 309.335Z" fill="black"/>
<path d="M333.809 263.349C334.431 262.663 334.885 261.738 335.11 260.697C335.28 259.642 334.947 258.38 334.199 257.995C333.363 257.564 332.47 258.344 331.794 259.137C331.117 259.931 330.339 260.83 329.452 260.66C329.908 260.102 330.249 259.395 330.442 258.606C330.635 257.817 330.673 256.974 330.553 256.16C330.515 255.822 330.409 255.505 330.247 255.242C329.782 254.572 328.943 254.862 328.385 255.389C326.618 257.068 326.126 260.307 326.115 263.225C325.939 262.174 326.088 261.078 326.081 260.013C326.075 258.949 325.857 257.72 325.184 257.16C324.767 256.857 324.299 256.707 323.825 256.724C323.03 256.683 322.147 256.793 321.603 257.577C320.923 258.55 321.103 260.188 321.691 261.248C322.279 262.307 323.169 262.991 323.992 263.734C324.651 264.263 325.213 264.986 325.636 265.849C325.686 265.969 325.727 266.095 325.759 266.225H330.737C331.852 265.458 332.885 264.49 333.809 263.349Z" fill="#113399"/>
<path opacity="0.1" d="M49.8591 220.353C60.6716 238.915 56.4716 266.033 49.6008 287.746C47.3003 295.017 44.6975 302.711 45.6693 310.505C46.8552 320.038 53.1449 327.021 59.7779 330.691C71.8409 337.425 86.2825 335.82 97.3634 326.511C106.942 318.465 113.803 305.381 123.545 297.701C139.856 284.856 160.604 289.705 178.308 298.554C190.833 304.816 204.527 312.964 216.974 306.418C225.731 301.83 231.786 290.604 235.085 278.722C236.679 272.983 237.834 266.794 240.862 262.207C242.67 259.504 245.028 257.582 247.447 255.967C269.535 241.191 297.398 249.086 318.833 232.717C333.312 221.652 342.582 200.773 346.697 179.005C350.812 157.237 350.323 134.409 349.279 111.993C348.539 96.0606 347.21 79.0542 339.67 66.7548C331.695 53.7488 318.004 48.9088 305.632 51.3816C293.26 53.8543 282.039 62.7085 272.185 73.0857C259.854 86.055 248.419 102.208 233.278 107.465C222.968 111.044 212.122 109.085 201.486 108.411C183.707 107.277 165.925 109.787 148.245 112.539C131.32 115.182 114.265 118.09 98.1484 125.522C86.7378 130.784 77.5903 140.331 66.8152 147.002C59.7915 151.351 52.1323 152.553 45.4858 158.09C37.2932 164.912 29.7869 176.78 31.8937 190.662C33.8714 203.879 44.1164 210.504 49.8591 220.353Z" fill="#113399"/>
<path opacity="0.1" d="M187.69 220.344C267.95 220.344 333.013 211.906 333.013 201.498C333.013 191.09 267.95 182.652 187.69 182.652C107.43 182.652 42.3667 191.09 42.3667 201.498C42.3667 211.906 107.43 220.344 187.69 220.344Z" fill="#113399"/>
<path opacity="0.1" d="M76.0004 329.071C115.666 329.071 147.821 320.634 147.821 310.225C147.821 299.817 115.666 291.379 76.0004 291.379C36.3349 291.379 4.17969 299.817 4.17969 310.225C4.17969 320.634 36.3349 329.071 76.0004 329.071Z" fill="#113399"/>
<path d="M149.418 195.622L148.28 197.856C148.28 197.856 149.52 200.09 149.639 200.37C149.758 200.65 153.258 200.232 153.258 200.232L153.567 198.558L153.051 196.603L149.418 195.622Z" fill="#E6E6F0"/>
<path d="M111.146 194.365L108.869 194.92L110.317 198.695L111.87 199.81L113.317 201.205L113.732 199.672L112.695 196.736L111.146 194.365Z" fill="#FDC2CC"/>
<path d="M148.385 158.053C148.385 158.053 160.489 161.962 162.762 166.311C162.762 166.311 164.831 168.688 162.762 173.014C160.693 177.34 157.797 187.121 157.797 187.121C157.797 187.121 155.728 196.617 154.902 197.314C154.077 198.012 149.316 198.571 148.901 195.938C148.901 195.938 151.589 190.213 151.589 187.556C151.589 184.9 156.037 172.335 156.037 172.335C156.037 172.335 145.901 170.798 142.693 171.775C139.486 172.752 144.144 156.517 148.385 158.053Z" fill="#565171"/>
<path opacity="0.1" d="M148.385 158.053C148.385 158.053 160.489 161.962 162.762 166.311C162.762 166.311 164.831 168.688 162.762 173.014C160.693 177.34 157.797 187.121 157.797 187.121C157.797 187.121 155.728 196.617 154.902 197.314C154.077 198.012 149.316 198.571 148.901 195.938C148.901 195.938 151.589 190.213 151.589 187.556C151.589 184.9 156.037 172.335 156.037 172.335C156.037 172.335 145.901 170.798 142.693 171.775C139.486 172.752 144.144 156.517 148.385 158.053Z" fill="black"/>
<path d="M145.901 161.824C145.877 162.636 145.813 163.549 145.721 164.531C145.058 171.642 142.901 182.216 142.901 182.216C142.901 182.216 140.729 188.501 140.107 192.552C139.486 196.603 135.245 197.599 135.245 197.599C135.245 197.599 123.658 199.434 121.279 198.718C118.9 198.002 115.162 200.815 113.314 200.393C111.465 199.971 110.313 194.107 110.313 194.107C113.522 194.133 116.697 193.229 119.624 191.456C124.381 188.524 131.211 189.919 131.211 189.919C131.721 189.719 132.195 189.381 132.604 188.925C133.013 188.469 133.348 187.905 133.59 187.267C134.314 185.171 134.314 172.463 134.106 171.623C132.747 166.118 132.859 162.586 133.25 160.526C133.381 159.626 133.675 158.784 134.106 158.076L145.901 161.824Z" fill="#565171"/>
<path opacity="0.1" d="M145.901 161.824C145.877 162.636 145.813 163.549 145.721 164.531C144.681 164.641 141.766 164.747 139.604 162.944C137.566 161.255 134.599 160.682 133.264 160.503C133.394 159.603 133.689 158.762 134.12 158.053L145.901 161.824Z" fill="black"/>
<path d="M147.332 160.076C146.849 161.911 146.108 164.063 146.108 164.063C146.108 164.063 142.282 164.76 139.591 162.526C136.9 160.292 132.557 160.012 132.557 160.012C133.261 159.43 133.736 157.659 134.032 156.108C134.197 155.231 134.326 154.343 134.419 153.447C134.419 153.447 147.141 156.938 147.672 157.498C147.869 157.718 147.658 158.829 147.332 160.076Z" fill="#E6E6F0"/>
<path d="M170.003 101.213L154.573 113.787L153.041 115.035V108.892L154.104 108.204L167.108 99.8133C167.108 99.8133 167.73 84.5915 169.385 86.9679C171.04 89.3443 170.003 101.213 170.003 101.213Z" fill="#FDC2CC"/>
<path opacity="0.1" d="M154.573 113.787L153.041 115.035V108.892L154.104 108.204C154.174 110.076 154.331 111.941 154.573 113.787Z" fill="black"/>
<path d="M142.697 116.035L153.764 107.378C153.764 107.378 153.971 115.76 155.212 117.012C155.212 117.012 150.662 118.847 148.902 122.738L142.697 116.035Z" fill="#B45181"/>
<path opacity="0.1" d="M142.697 116.035L153.764 107.378C153.764 107.378 153.971 115.76 155.212 117.012C155.212 117.012 150.662 118.847 148.902 122.738L142.697 116.035Z" fill="black"/>
<path d="M169.905 123.417C169.905 123.417 164.641 126.513 161.155 127.651C160.37 127.97 159.55 128.098 158.732 128.027C156.353 127.467 159.354 123.439 159.354 123.439L160.604 123.178L167.319 121.765C167.319 121.765 168.042 107.8 169.283 108.92C170.523 110.039 169.905 123.417 169.905 123.417Z" fill="#FDC2CC"/>
<path d="M147.661 110.847C147.661 110.847 143.213 115.315 144.868 120.903C146.523 126.49 136.281 117.549 136.281 117.549C136.281 117.549 139.591 110.847 140.315 105.818C141.038 100.79 147.661 110.847 147.661 110.847Z" fill="#FDC2CC"/>
<path opacity="0.1" d="M147.332 160.076C145.408 159.098 143.397 158.466 141.351 158.195C138.361 157.737 135.622 156.961 134.035 156.108C134.2 155.231 134.33 154.343 134.423 153.447C134.423 153.447 147.145 156.938 147.675 157.498C147.868 157.718 147.658 158.829 147.332 160.076Z" fill="black"/>
<path opacity="0.1" d="M161.151 127.651C160.367 127.97 159.546 128.098 158.728 128.027C156.35 127.467 159.35 123.439 159.35 123.439L160.601 123.178C161.124 124.265 161.658 125.963 161.151 127.651Z" fill="black"/>
<path d="M140.42 113.36C140.42 113.36 136.387 113.223 134.939 115.457C133.491 117.691 133.801 123.715 133.801 123.715C133.801 123.715 133.498 135.776 135.765 142.524C135.839 142.742 135.848 142.991 135.788 143.217C135.765 143.299 135.765 143.249 135.765 143.249C135.765 143.249 134.317 152.048 132.87 153.585C131.422 155.122 135.972 156.938 141.365 157.773C146.757 158.608 148.915 160.705 148.915 160.705C148.915 160.705 149.846 159.329 149.934 156.237C150.023 153.144 148.497 130.679 148.497 130.679C148.497 130.679 154.185 132.633 157.6 130.261C157.6 130.261 159.153 131.381 160.601 128.307C162.048 125.233 159.581 121.884 159.581 121.884C159.581 121.884 157.305 124.958 150.995 120.907C144.684 116.856 142.381 113.223 140.42 113.36Z" fill="#661E7B" fill-opacity="0.91"/>
<path d="M109.491 194.644H108.251V197.021L109.491 200.792C109.491 200.792 111.146 201.209 111.251 201.209C111.357 201.209 112.699 200.792 112.699 200.792L113.114 199.815C113.114 199.815 108.56 197.434 109.491 194.644Z" fill="#E6E6F0"/>
<path d="M148.385 196.878L146.522 202.466L154.386 207.513L160.594 207.792C160.594 207.792 161.11 205.838 159.041 204.861L157.386 204.443C157.386 204.443 155.215 199.136 155.007 196.645C155.007 196.645 152.938 197.204 152.629 199.296C152.625 199.25 149.73 201.205 148.385 196.878Z" fill="#B45181"/>
<path d="M108.56 194.084L107.928 194.782L105.148 197.855L111.561 209.325C111.561 209.325 115.179 211.421 116.838 209.325C116.838 209.325 117.857 207.948 115.597 206.811C115.597 206.811 113.837 207.228 113.837 204.856C113.837 202.484 114.252 199.97 114.857 199.411C114.857 199.411 113.304 198.713 112.893 199.273C112.576 199.744 112.298 200.259 112.063 200.81C112.063 200.81 108.353 198.833 108.56 194.084Z" fill="#B45181"/>
<path opacity="0.1" d="M140.111 106.098C140.006 106.807 139.867 107.506 139.696 108.19C140.234 109.935 141.254 111.329 142.54 112.075C143.826 112.821 145.277 112.861 146.584 112.186C146.857 111.806 147.149 111.452 147.457 111.126C147.457 111.126 140.835 101.07 140.111 106.098Z" fill="black"/>
<path opacity="0.1" d="M139.54 124.752C139.54 124.752 142.748 130.477 147.403 130.619Z" fill="black"/>
<g opacity="0.1">
<path opacity="0.1" d="M158.711 130.358C158.646 130.333 158.582 130.301 158.521 130.261C158.421 130.332 158.32 130.398 158.215 130.459C158.383 130.454 158.55 130.42 158.711 130.358Z" fill="black"/>
<path opacity="0.1" d="M159.813 122.458C159.7 122.263 159.58 122.076 159.452 121.898C159.452 121.898 158.773 122.816 157.094 122.99C158.019 123.114 158.952 122.931 159.813 122.458V122.458Z" fill="black"/>
<path opacity="0.1" d="M149.418 130.679L149.438 130.977C150.803 131.318 152.19 131.472 153.577 131.436C152.176 131.367 150.783 131.113 149.418 130.679V130.679Z" fill="black"/>
<path opacity="0.1" d="M142.282 157.783C136.903 156.943 132.353 155.131 133.787 153.594C135.221 152.057 136.682 143.258 136.682 143.258C136.682 143.258 136.682 143.309 136.706 143.226C136.765 143 136.757 142.751 136.682 142.533C134.416 135.767 134.718 123.724 134.718 123.724C134.718 123.724 134.409 117.719 135.856 115.466C136.934 113.801 139.445 113.457 140.658 113.388C140.545 113.376 140.431 113.376 140.318 113.388C140.318 113.388 136.284 113.25 134.837 115.485C133.389 117.719 133.699 123.742 133.699 123.742C133.699 123.742 133.396 135.803 135.663 142.552C135.737 142.769 135.746 143.018 135.686 143.244C135.663 143.327 135.663 143.276 135.663 143.276C135.663 143.276 134.225 152.048 132.764 153.585C131.303 155.122 135.867 156.938 141.259 157.773C146.652 158.608 148.81 160.705 148.81 160.705C148.918 160.53 149.013 160.341 149.095 160.141C148.045 159.457 145.884 158.333 142.282 157.783Z" fill="black"/>
</g>
<path d="M144.868 112.383C147.839 112.383 150.247 109.132 150.247 105.121C150.247 101.11 147.839 97.8589 144.868 97.8589C141.897 97.8589 139.489 101.11 139.489 105.121C139.489 109.132 141.897 112.383 144.868 112.383Z" fill="#FDC2CC"/>
<path opacity="0.1" d="M152.524 101.873C152.079 103.378 150.75 103.947 149.585 104.337C147.92 104.887 146.126 105.428 144.532 104.575C144.325 104.419 144.087 104.356 143.852 104.396C143.663 104.499 143.505 104.685 143.404 104.924C141.647 108.3 141.932 112.801 141.477 116.884C141.334 118.155 141.093 119.467 140.458 120.416C139.221 122.251 136.886 122.183 135.748 124.132C134.997 125.417 134.99 127.201 134.997 128.839C134.997 130.586 134.986 132.333 134.963 134.083C134.943 135.23 134.902 136.418 134.518 137.436C133.866 139.161 132.411 139.983 131.069 140.648C130.233 141.07 129.37 141.496 128.473 141.382C127.576 141.267 126.679 140.464 126.563 139.253C126.403 137.611 127.657 136.464 128.52 135.28C129.9 133.395 130.468 130.651 130.518 128C130.567 126.929 130.451 125.856 130.179 124.848C129.863 123.807 129.299 122.93 128.959 121.903C127.912 118.737 129.203 115.076 130.75 112.305C132.296 109.534 134.195 106.832 134.525 103.396C134.554 102.653 134.632 101.914 134.759 101.189C134.997 100.189 135.561 97.4276 136.183 96.7945C137.179 95.7821 138.347 95.1256 139.581 94.8861C140.536 94.698 141.511 94.7668 142.459 94.5191C143.567 94.23 144.597 93.519 145.704 93.2529C148.1 92.6794 150.699 96.4367 151.749 99.4003C152.038 100.309 152.796 100.951 152.524 101.873Z" fill="black"/>
<path d="M152.524 101.593C152.079 103.098 150.75 103.667 149.585 104.057C147.92 104.607 146.126 105.149 144.532 104.295C144.325 104.139 144.087 104.076 143.852 104.116C143.663 104.219 143.505 104.405 143.404 104.644C141.647 108.021 141.932 112.521 141.477 116.604C141.334 117.875 141.093 119.187 140.458 120.136C139.221 121.972 136.886 121.903 135.748 123.852C134.997 125.137 134.99 126.922 134.997 128.559C134.997 130.306 134.986 132.054 134.963 133.803C134.943 134.95 134.902 136.138 134.518 137.157C133.866 138.882 132.411 139.703 131.069 140.368C130.233 140.79 129.37 141.217 128.473 141.102C127.576 140.987 126.679 140.184 126.563 138.973C126.403 137.331 127.657 136.184 128.52 135C129.9 133.115 130.468 130.372 130.518 127.72C130.567 126.649 130.451 125.576 130.179 124.568C129.863 123.527 129.299 122.651 128.959 121.623C127.912 118.457 129.203 114.796 130.75 112.026C132.296 109.255 134.195 106.552 134.525 103.116C134.554 102.373 134.632 101.634 134.759 100.91C134.997 99.9096 135.561 97.1478 136.183 96.5147C137.179 95.5023 138.347 94.8458 139.581 94.6063C140.536 94.4182 141.511 94.487 142.459 94.2393C143.567 93.9502 144.597 93.2392 145.704 92.9731C148.1 92.3996 150.699 96.1569 151.749 99.1205C152.038 100.029 152.796 100.671 152.524 101.593Z" fill="#F569BC"/>
<path d="M169.905 105.633C169.905 95.6919 177.964 87.6331 187.905 87.6331H241.331C251.272 87.6331 259.331 95.6919 259.331 105.633V190.357C259.331 200.298 251.272 208.357 241.331 208.357H187.905C177.964 208.357 169.905 200.298 169.905 190.357V105.633Z" fill="#F7DF1E"/>
<path d="M193.422 188.52L200.266 182.928C201.588 186.088 202.787 188.763 205.669 188.763C208.431 188.763 210.171 187.304 210.171 181.634V143.056H218.575V181.79C218.575 193.539 213.477 198.888 206.029 198.888C199.308 198.888 195.407 194.186 193.426 188.515L193.422 188.52ZM223.138 187.3L229.978 181.95C231.779 185.923 234.12 188.832 238.263 188.832C241.746 188.832 243.965 186.483 243.965 183.24C243.965 179.349 241.685 177.973 237.848 175.702L235.748 174.486C229.686 171.004 225.663 166.628 225.663 157.388C225.663 148.878 230.464 142.396 237.967 142.396C243.309 142.396 247.142 144.91 249.911 151.47L243.37 157.145C241.929 153.658 240.369 152.282 237.967 152.282C235.507 152.282 233.944 154.388 233.944 157.145C233.944 160.549 235.504 161.925 239.105 164.026L241.205 165.242C248.341 169.371 252.371 173.587 252.371 183.07C252.371 193.282 246.428 198.874 238.439 198.874C230.624 198.874 225.595 193.828 223.148 187.286" fill="black"/>
<path d="M298.557 275.355C298.557 275.355 295.068 275.685 292.913 270.639C292.492 269.622 291.995 268.668 291.428 267.79C290.733 266.25 290.371 264.478 290.385 262.674C290.504 258.936 287.616 238.456 287.616 238.456C287.616 238.456 287.976 230.657 285.088 225.781C283.185 222.569 280.449 213.394 278.801 207.467C278.912 207.6 279.045 207.694 279.189 207.742L279.121 207.233H279.189L278.336 200.906C277.094 198.979 276.047 196.838 275.223 194.539L275.417 194.484L277.972 193.759C277.972 193.759 282.125 185.79 282.39 181.872H282.729H283.209C287.052 181.844 290.894 182.115 294.714 182.684V182.684C294.714 182.661 294.687 182.561 294.653 182.4C294.491 181.612 294.367 180.81 294.279 180.001H294.517L296.896 179.79C296.896 179.79 305.082 167.44 302.071 165.164C299.06 162.889 295.931 175.404 295.931 175.404L294.911 175.652L294.636 175.72C294.663 175.665 294.69 175.615 294.721 175.564C294.752 175.514 281.36 174.757 279.297 170.362C279.297 170.362 273.398 164.022 273.157 159.81C273.114 158.937 272.893 158.096 272.519 157.381C272.145 156.665 271.632 156.103 271.037 155.755C270.308 155.285 269.501 155.081 268.696 155.163L265.933 155.42L266.127 155.879H266.049C265.875 155.343 265.73 154.791 265.614 154.227H265.671C265.651 154.113 265.634 153.998 265.617 153.883C266.464 153.614 267.262 153.117 267.964 152.424C268.666 151.73 269.257 150.854 269.704 149.846C270.15 148.838 270.442 147.719 270.563 146.556C270.683 145.393 270.629 144.209 270.405 143.075C270.675 143.122 270.949 143.111 271.217 143.043C272.236 142.763 272.953 141.368 272.98 139.973C272.98 139.882 272.98 139.79 272.98 139.703C272.98 139.703 272.98 139.666 272.98 139.648C272.97 138.947 272.845 138.258 272.612 137.631C272.38 137.004 272.047 136.455 271.638 136.024C271.088 135.404 270.429 134.964 269.939 134.276C269.345 133.454 269.018 132.353 268.556 131.385C267.782 129.784 266.634 128.578 265.294 127.958C264.299 127.5 263.075 127.454 262.311 128.417C261.917 128.917 261.689 129.642 261.247 130.064C260.612 130.679 259.749 130.495 258.97 130.619C258.266 130.766 257.599 131.144 257.028 131.721C256.457 132.298 256.001 133.055 255.698 133.927C255.317 135.018 255.133 136.217 255.161 137.423C255.153 138.25 255.226 139.076 255.379 139.877C255.528 140.675 255.749 141.446 255.912 142.244C256.252 143.896 256.33 145.635 256.721 147.263C256.983 148.472 257.508 149.547 258.226 150.351L258.111 151.021C258.036 151.021 256.16 151.585 254.866 155.406C253.846 158.42 250.377 161.531 248.851 162.788C248.567 163.023 248.32 163.332 248.125 163.698C247.93 164.063 247.791 164.478 247.716 164.916C247.57 165.803 247.505 166.711 247.522 167.619C247.495 169.578 247.798 172.289 248.963 175.725C251.61 183.524 253.537 186.937 253.537 186.937C253.537 186.937 253.683 189.327 253.693 191.846C253.693 193.722 253.591 195.589 253.296 196.525C253.044 197.314 252.956 199.328 252.976 201.631C252.976 206.045 253.296 211.802 253.296 211.802C253.296 211.802 254.217 212.041 255.64 212.321L256.527 233.387C256.639 235.938 256.032 238.452 254.828 240.424C254.206 241.462 253.488 242.387 252.691 243.177C250.163 245.613 244.746 271.295 244.746 271.295C244.746 271.295 245.011 271.295 245.446 271.363L243.781 277.635C243.781 277.635 250.435 284.516 254.482 282.635C254.92 282.442 255.38 282.355 255.841 282.378C256.639 282.378 258.349 281.525 257.397 280.401C255.56 278.117 253.827 275.684 252.208 273.116C252.339 273.202 252.464 273.302 252.582 273.414V273.364L252.64 273.414C252.64 273.414 252.64 273.162 252.684 272.749L252.626 272.721C252.749 271.033 253.136 266.757 253.904 266.262C254.866 265.611 261.971 246.595 261.971 246.595L269.073 221.89C269.073 221.89 274.73 235.057 279.545 237.328V242.833C279.545 242.833 282.193 259.087 283.158 260.871C284.123 262.656 283.158 269.808 283.158 269.808C283.348 270.102 283.566 270.362 283.807 270.579L283.035 276.469C283.035 276.469 288.574 276.144 297.963 280.043C297.956 280.066 301.568 277.956 298.557 275.355ZM276.409 190.355L275.237 190.749L275.006 190.827C274.982 190.63 274.965 190.515 274.965 190.515C274.696 190.679 274.407 190.774 274.112 190.795C273.696 189.018 273.457 187.175 273.398 185.313C273.004 183.085 272.764 180.812 272.681 178.523C272.681 177.34 272.828 176.308 273.157 175.725L273.548 175.766L273.82 176.115L273.84 176.138L273.98 176.308L274.126 176.482L274.149 176.509L274.306 176.698L274.333 176.73L274.493 176.913L274.673 177.115L274.713 177.161L274.904 177.367L275.091 177.569L275.135 177.615L275.342 177.826L275.386 177.867L275.583 178.065L275.617 178.097L275.842 178.312L275.896 178.363L276.134 178.583H276.154L276.385 178.789L276.44 178.84L276.688 179.056L276.742 179.101L276.973 179.294L277.017 179.331L277.282 179.542L277.347 179.592L277.622 179.799H277.643L277.911 179.991L277.976 180.037L278.261 180.23L278.319 180.267L278.584 180.432L278.635 180.464L278.934 180.638L279.005 180.68L279.314 180.849C277.395 183.703 276.409 190.355 276.409 190.355Z" fill="url(#paint0_linear_288_246)"/>
<path d="M246.717 267.501L244.484 275.91C244.484 275.91 250.601 282.241 254.576 280.929C255.175 280.727 255.786 280.594 256.401 280.53C257.224 280.447 258.641 279.635 257.76 278.607C254.94 275.277 251.178 269.088 251.178 269.088L246.717 267.501Z" fill="#4F4D59"/>
<path d="M283.854 266.707L282.797 274.8C282.797 274.8 288.203 274.483 297.371 278.291C297.371 278.291 300.898 276.226 297.959 273.703C297.959 273.703 294.561 274.02 292.437 269.115C290.313 264.211 289.039 264.831 289.039 264.831L283.854 266.707Z" fill="#4F4D59"/>
<path d="M255.875 208.003L256.894 232.63C257.006 235.254 256.362 237.835 255.096 239.833C254.525 240.75 253.873 241.571 253.156 242.278C250.689 244.659 245.398 269.726 245.398 269.726C245.398 269.726 251.393 270.184 253.037 271.79C253.037 271.79 253.377 265.445 254.328 264.808C255.28 264.17 262.202 245.608 262.202 245.608L269.137 221.491C269.137 221.491 274.659 234.337 279.362 236.566V241.961C279.362 241.961 281.948 257.83 282.889 259.573C283.83 261.316 282.889 268.29 282.889 268.29C282.889 268.29 285.607 272.877 291.819 267.973C291.819 267.973 289.821 264.959 289.94 261.307C290.059 257.656 287.221 237.667 287.221 237.667C287.221 237.667 287.561 230.052 284.754 225.281C281.948 220.509 277.282 202.283 277.282 202.283L274.047 192.887L255.875 208.003Z" fill="#661E7B" fill-opacity="0.91"/>
<g opacity="0.1">
<path opacity="0.1" d="M246.54 269.721C246.54 269.721 251.828 244.654 254.298 242.273C255.056 241.523 255.741 240.648 256.337 239.667C257.543 237.697 258.15 235.182 258.036 232.63L256.999 207.999L274.329 193.575L274.095 192.892L255.943 208.004L256.979 232.635C257.093 235.186 256.486 237.701 255.28 239.672C254.684 240.652 253.999 241.528 253.241 242.278C250.778 244.654 245.483 269.721 245.483 269.721C245.483 269.721 251.478 270.18 253.122 271.785C253.122 271.785 253.122 271.538 253.166 271.139C250.852 270.065 246.54 269.721 246.54 269.721Z" fill="#E70F36"/>
<path opacity="0.1" d="M284.031 268.294C284.031 268.294 284.972 261.312 284.031 259.578C283.089 257.844 280.504 241.966 280.504 241.966V236.562C275.804 234.341 270.279 221.487 270.279 221.487L269.871 222.927C271.465 226.34 275.716 234.809 279.45 236.571V241.966C279.45 241.966 282.036 257.834 282.977 259.578C283.919 261.321 282.977 268.294 282.977 268.294C282.977 268.294 284.289 270.524 287.184 270.221C285.02 269.978 284.031 268.294 284.031 268.294Z" fill="#E70F36"/>
</g>
<path d="M296.311 180.395L294.004 180.602L292.787 180.712V176.743L294.384 176.353L295.373 176.11C295.373 176.11 298.431 163.893 301.367 166.114C304.303 168.334 296.311 180.395 296.311 180.395Z" fill="#714B4F"/>
<path d="M259.293 147.69C259.293 147.69 257.764 155.622 257.295 160.535C256.826 165.449 268.223 161.49 268.223 161.49C268.223 161.49 263.874 154.351 266.344 150.543L259.293 147.69Z" fill="#714B4F"/>
<path d="M271.631 180.721L271.866 183.735L268.223 183.418L264.58 179.134L260.938 165.325L258.593 160.402L256.83 157.388L257.536 153.718C257.536 153.718 257.859 154.099 258.403 154.658C260.194 156.494 264.39 160.352 267.459 159.287C267.6 159.239 267.74 159.179 267.877 159.108L272.461 169.738L271.631 180.721Z" fill="#E6E6F0"/>
<path opacity="0.1" d="M258.471 152.787C258.471 152.787 256.592 153.245 255.297 157.071C254.305 159.998 250.948 163.035 249.449 164.26C249.163 164.496 248.915 164.806 248.72 165.174C248.524 165.541 248.385 165.957 248.311 166.398C248.008 168.206 247.893 171.578 249.537 176.427C252.123 184.042 254.002 187.373 254.002 187.373C254.002 187.373 254.471 194.988 253.768 197.209C253.065 199.429 253.768 211.646 253.768 211.646C253.768 211.646 266.106 214.821 270.221 211.646C274.336 208.471 273.748 196.254 273.748 196.254C273.748 196.254 277.626 207.361 279.036 207.678L278.213 201.489C278.213 201.489 273.629 194.823 273.395 186.258C273.395 186.258 271.985 178.482 273.161 176.422C273.161 176.422 293.022 178.643 294.198 176.739C294.198 176.739 281.153 175.945 279.155 171.66C279.155 171.66 273.395 165.471 273.161 161.347C273.126 160.573 272.947 159.823 272.638 159.169C272.329 158.515 271.902 157.977 271.397 157.608C270.598 156.994 269.68 156.718 268.764 156.815L266.11 157.062C266.11 157.062 270.694 168.008 270.459 169.449C270.225 170.889 270.694 182.459 270.694 182.459C270.694 182.459 265.389 167.068 263.055 165.325C260.72 163.581 257.999 156.406 257.999 156.406L258.467 152.782" fill="black"/>
<path opacity="0.1" d="M271.631 180.721L271.866 183.735L268.223 183.418L264.58 179.134L260.938 165.325L258.593 160.402L256.83 157.388L257.536 153.718C257.536 153.718 257.859 154.099 258.403 154.658L258.24 155.911C258.24 155.911 260.958 163.077 263.293 164.825C265.627 166.573 270.931 181.96 270.931 181.96C270.931 181.96 270.462 170.376 270.697 168.949C270.857 167.981 268.797 162.632 267.459 159.287C267.6 159.239 267.74 159.179 267.877 159.108L272.461 169.738L271.631 180.721Z" fill="black"/>
<path opacity="0.1" d="M294.004 180.602L292.787 180.712V176.743L294.384 176.354C293.827 177.349 293.847 179.111 294.004 180.602Z" fill="black"/>
<path d="M258.471 152.314C258.471 152.314 256.592 152.773 255.297 156.599C254.305 159.526 250.948 162.563 249.449 163.788C249.163 164.024 248.915 164.334 248.72 164.701C248.524 165.068 248.385 165.485 248.311 165.926C248.008 167.733 247.893 171.105 249.537 175.954C252.123 183.57 254.002 186.9 254.002 186.9C254.002 186.9 254.471 194.516 253.768 196.736C253.065 198.957 253.768 211.174 253.768 211.174C253.768 211.174 266.106 214.348 270.221 211.174C274.336 207.999 273.748 195.782 273.748 195.782C273.748 195.782 277.622 206.87 279.036 207.21L278.213 201.021C278.213 201.021 273.629 194.355 273.395 185.79C273.395 185.79 271.985 178.014 273.161 175.954C273.161 175.954 277.745 182.62 282.916 182.46C286.685 182.429 290.452 182.694 294.198 183.253C294.198 183.253 293.022 178.175 294.198 176.271C294.198 176.271 281.153 175.477 279.155 171.192C279.155 171.192 273.395 165.004 273.161 160.879C273.126 160.105 272.947 159.355 272.638 158.701C272.329 158.047 271.902 157.51 271.397 157.14C270.598 156.526 269.68 156.25 268.764 156.347L266.11 156.594C266.11 156.594 270.694 167.541 270.459 168.981C270.225 170.422 270.694 181.992 270.694 181.992C270.694 181.992 265.389 166.591 263.055 164.848C260.72 163.104 257.999 155.948 257.999 155.948L258.467 152.323" fill="#113399"/>
<path opacity="0.1" d="M255.875 168.972C255.875 168.972 258.695 181.817 260.34 183.409C261.984 185.001 271.975 193.089 274.914 191.185C274.914 191.185 275.621 195.947 274.574 197.057C274.574 197.057 263.616 196.479 263.527 196.424C263.527 196.424 256.357 195.154 255.182 190.396C254.006 185.639 252.596 177.551 252.596 177.551L255.875 168.972Z" fill="black"/>
<path d="M270.928 183.492C271.155 183.492 271.339 183.136 271.339 182.698C271.339 182.26 271.155 181.904 270.928 181.904C270.701 181.904 270.517 182.26 270.517 182.698C270.517 183.136 270.701 183.492 270.928 183.492Z" fill="#113399"/>
<path d="M272.1 189.043C272.327 189.043 272.511 188.688 272.511 188.249C272.511 187.811 272.327 187.456 272.1 187.456C271.873 187.456 271.689 187.811 271.689 188.249C271.689 188.688 271.873 189.043 272.1 189.043Z" fill="#113399"/>
<g opacity="0.1">
<path opacity="0.1" d="M254.594 210.999C254.594 210.999 253.887 198.782 254.594 196.562C255.301 194.341 254.828 186.726 254.828 186.726C254.828 186.726 252.949 183.395 250.363 175.78C248.715 170.931 248.834 167.559 249.136 165.751C249.211 165.31 249.35 164.894 249.545 164.527C249.741 164.16 249.989 163.849 250.275 163.613C251.773 162.375 255.127 159.352 256.123 156.425C256.853 154.278 257.767 153.19 258.427 152.649L258.471 152.3C258.471 152.3 256.592 152.759 255.297 156.585C254.305 159.512 250.948 162.549 249.449 163.774C249.163 164.01 248.915 164.32 248.72 164.687C248.524 165.055 248.385 165.471 248.311 165.912C248.008 167.719 247.893 171.091 249.537 175.94C252.123 183.556 254.002 186.887 254.002 186.887C254.002 186.887 254.471 194.502 253.768 196.722C253.065 198.943 253.768 211.16 253.768 211.16C253.768 211.16 262.582 213.426 267.795 212.21C262.532 213.059 254.594 210.999 254.594 210.999Z" fill="black"/>
<path opacity="0.1" d="M270.456 168.972C270.296 169.949 270.456 175.697 270.588 179.221C271.156 180.785 271.513 181.826 271.513 181.826C271.513 181.826 271.044 170.243 271.278 168.816C271.503 167.44 267.374 157.503 266.963 156.521L266.106 156.599C266.106 156.599 270.694 167.545 270.456 168.972Z" fill="black"/>
<path opacity="0.1" d="M283.738 182.299C278.567 182.46 273.983 175.794 273.983 175.794C273.845 176.052 273.745 176.343 273.687 176.652C275.046 178.358 278.784 182.583 282.916 182.455C286.685 182.424 290.452 182.689 294.198 183.249C294.198 183.249 294.174 183.143 294.136 182.964C290.682 182.482 287.211 182.26 283.738 182.299Z" fill="black"/>
<path opacity="0.1" d="M274.564 195.626C274.564 195.626 274.612 196.617 274.584 198.103C275.808 201.379 278.033 206.98 279.029 207.205L278.856 205.902C277.146 203.003 274.564 195.626 274.564 195.626Z" fill="black"/>
</g>
<path d="M277.86 194.025L275.362 194.736L273.392 195.296L274.448 191.328L275.186 191.08L276.331 190.694C276.331 190.694 277.976 179.588 281.268 180.381C284.561 181.175 277.86 194.025 277.86 194.025Z" fill="#714B4F"/>
<path opacity="0.1" d="M275.366 194.75L273.395 195.31L274.452 191.341L275.189 191.094C275.353 192.299 275.412 193.526 275.366 194.75Z" fill="black"/>
<path d="M255.875 168.656C255.875 168.656 258.695 181.501 260.34 183.093C261.984 184.685 271.975 192.773 274.914 190.869C274.914 190.869 275.621 195.631 274.574 196.741C274.574 196.741 263.616 196.163 263.527 196.108C263.527 196.108 256.357 194.837 255.182 190.08C254.006 185.322 252.596 177.234 252.596 177.234L255.875 168.656Z" fill="#113399"/>
<path opacity="0.1" d="M259.409 148.029C259.409 148.029 259.171 149.273 258.852 151.08C259.502 152.744 260.541 154.073 261.806 154.861C263.072 155.648 264.495 155.851 265.855 155.438C265.573 153.81 265.634 152.163 266.46 150.887L259.409 148.029Z" fill="black"/>
<path d="M264.346 155.328C267.852 155.328 270.694 151.492 270.694 146.759C270.694 142.026 267.852 138.189 264.346 138.189C260.84 138.189 257.999 142.026 257.999 146.759C257.999 151.492 260.84 155.328 264.346 155.328Z" fill="#714B4F"/>
<path opacity="0.1" d="M269.858 144.4C270.317 144.574 270.799 144.614 271.271 144.52C271.76 144.341 272.193 143.952 272.503 143.411C272.813 142.871 272.984 142.208 272.99 141.524C272.982 140.84 272.859 140.167 272.633 139.555C272.407 138.943 272.082 138.408 271.682 137.987C271.145 137.381 270.503 136.955 270.01 136.28C269.429 135.478 269.11 134.404 268.651 133.459C267.896 131.896 266.775 130.719 265.467 130.115C264.495 129.656 263.303 129.619 262.555 130.573C262.171 131.064 261.947 131.766 261.519 132.184C260.897 132.78 260.054 132.606 259.296 132.725C258.61 132.866 257.96 133.232 257.403 133.792C256.846 134.352 256.399 135.089 256.102 135.936C255.522 137.665 255.412 139.614 255.79 141.441C255.936 142.221 256.153 142.974 256.31 143.735C256.649 145.35 256.717 147.043 257.098 148.635C257.479 150.227 258.263 151.787 259.453 152.264C259.359 150.477 259.621 148.689 260.211 147.084C260.308 146.733 260.499 146.445 260.747 146.277C260.959 146.203 261.181 146.203 261.393 146.277C262.883 146.574 264.404 146.159 265.692 145.102C266.143 144.735 266.847 143.469 267.326 143.345C267.944 143.203 269.212 144.208 269.858 144.4Z" fill="black"/>
<path d="M269.858 144.084C270.317 144.257 270.799 144.298 271.271 144.203C271.76 144.024 272.193 143.635 272.503 143.095C272.813 142.554 272.984 141.891 272.99 141.207C272.982 140.523 272.859 139.851 272.633 139.239C272.407 138.627 272.082 138.091 271.682 137.67C271.145 137.065 270.503 136.638 270.01 135.964C269.429 135.161 269.11 134.087 268.651 133.142C267.896 131.58 266.775 130.402 265.467 129.798C264.495 129.339 263.303 129.302 262.555 130.257C262.171 130.748 261.947 131.449 261.519 131.867C260.897 132.463 260.054 132.289 259.296 132.408C258.61 132.549 257.96 132.916 257.403 133.476C256.846 134.036 256.399 134.772 256.102 135.62C255.522 137.348 255.412 139.297 255.79 141.125C255.936 141.905 256.153 142.657 256.31 143.419C256.649 145.033 256.717 146.726 257.098 148.318C257.479 149.91 258.263 151.47 259.453 151.947C259.362 150.161 259.626 148.374 260.217 146.772C260.315 146.421 260.506 146.133 260.754 145.965C260.966 145.891 261.188 145.891 261.4 145.965C262.89 146.262 264.411 145.847 265.698 144.79C266.15 144.423 266.854 143.157 267.333 143.033C267.944 142.886 269.212 143.891 269.858 144.084Z" fill="#503F43"/>
<path d="M333.18 115.801L328.001 194.112L304.725 202.829L281.513 194.112L276.341 115.801H333.18Z" fill="#E44D26"/>
<path d="M304.759 196.167L323.567 189.13L327.984 122.206H304.759V196.167Z" fill="#F16529"/>
<path d="M294.694 141.419H304.759V131.812H286.919L287.089 134.39L288.839 160.861H304.762V151.254H295.346L294.694 141.419ZM296.311 165.664H289.175L290.171 180.748L304.728 186.226H304.762V176.202H304.731L296.807 173.312L296.311 165.664Z" fill="#EBEBEB"/>
<path d="M284.747 104.231V108.621H282.132V95.0144H284.747V99.336V99.836H285.247H288.554H289.054V99.336V95.0144H291.669V108.621H289.054V104.231V103.731H288.554H285.247H284.747V104.231ZM296.923 98.8589H294.239V95.0144H303.222V98.8589H300.538H300.038V99.3589V108.621H297.426V99.3589V98.8589H296.926H296.923ZM311.858 99.8537L314.042 95.0144H316.991V108.621H314.389V101.882L313.438 101.666L311.371 105.982L309.301 101.666L308.35 101.882V108.621H305.809V95.0144H308.758L310.946 99.8539L311.402 100.862L311.858 99.8537ZM322.904 104.791H327.501V108.617H319.799V95.0144H322.404V104.291V104.791H322.904Z" fill="#FFF7FF" stroke="#113399"/>
<path d="M304.735 160.861H313.495L312.669 173.321L304.735 176.211V186.226L319.323 180.767L319.428 179.143L321.1 153.851L321.273 151.273H304.735V160.879V160.861ZM304.735 141.396V141.418H321.922L322.065 139.258L322.405 134.386L322.575 131.807H304.735V141.391V141.396Z" fill="white"/>
<path d="M124.616 173.615C123.953 170.995 122.998 167.651 122.237 166.889C122.191 166.84 122.141 166.798 122.088 166.765H121.993V163.531L120.205 163.916C119.918 162.747 119.701 161.549 119.556 160.333C119.728 160.566 119.948 160.724 120.187 160.789C120.426 160.853 120.673 160.821 120.898 160.696C120.868 160.632 120.844 160.563 120.817 160.494L120.898 160.448C120.617 159.778 120.469 159.021 120.467 158.251C120.482 157.548 120.565 156.85 120.715 156.177C121.034 154.686 121.575 153.291 121.877 151.796C122.07 150.83 122.162 149.832 122.149 148.832C122.158 147.137 121.872 145.464 121.313 143.946C121.174 143.509 120.957 143.126 120.681 142.831C120.43 142.643 120.171 142.473 119.906 142.322C119.463 141.919 119.081 141.405 118.782 140.808C117.512 138.722 115.813 137.191 113.899 136.409C113.4 136.159 112.86 136.102 112.339 136.244C111.139 136.702 110.701 138.689 109.729 139.739C108.869 140.657 107.69 140.762 106.617 141.074C105.514 141.328 104.5 142.045 103.718 143.125C103.21 143.909 102.933 144.918 102.94 145.96C102.911 146.446 102.974 146.935 103.125 147.378C103.275 147.821 103.508 148.205 103.8 148.493C104.132 148.788 104.508 148.98 104.902 149.055C105.295 149.13 105.696 149.087 106.076 148.928C105.78 150.312 105.698 151.764 105.836 153.192C105.975 154.62 106.33 155.995 106.881 157.229C107.431 158.463 108.164 159.53 109.035 160.364C109.905 161.197 110.893 161.779 111.938 162.072L112.149 162.577C112.791 164.195 113.279 165.917 113.6 167.701C111.955 168.963 110.157 170.142 109.073 170.252C109.03 170.824 108.952 171.39 108.839 171.945C108.586 173.337 108.098 174.632 107.415 175.729C105.94 177.968 99.304 194.897 99.304 194.897C99.304 194.897 99.0933 195.571 98.7535 196.732C94.6317 197.415 87.907 198.402 86.0279 197.892L78.6542 188.433C78.6542 188.433 76.2756 190.887 76.4795 193.869L75.1509 192.162C75.1509 192.162 68.1441 199.379 79.2081 204.09L96.0419 206.728C94.4381 213.261 92.9429 220.863 93.4051 225.001H93.5444C93.8663 225 94.1878 224.966 94.506 224.9L94.4754 225.634L92.8546 264.826C92.8546 264.826 92.4842 272.042 97.4623 275.281C97.4623 275.281 103.548 299.426 101.149 302.165C101.149 302.165 101.435 302.367 101.914 302.651L96.9084 308.615C96.9084 308.615 93.2216 309.858 91.1929 309.61C90.8364 309.545 90.4745 309.659 90.1762 309.93C89.8778 310.202 89.664 310.612 89.5755 311.083C89.5755 311.134 89.5755 311.184 89.5551 311.239V311.303C89.5551 311.354 89.5551 311.409 89.5551 311.464C89.5551 311.519 89.5551 311.505 89.5551 311.523C89.5551 311.542 89.5551 311.615 89.5551 311.661V311.721C89.5551 311.776 89.5551 311.826 89.5789 311.881V311.941C89.5902 311.999 89.6038 312.056 89.6197 312.111V312.166C89.6366 312.221 89.657 312.276 89.6774 312.331V312.368C89.7012 312.423 89.725 312.478 89.7522 312.533L89.776 312.579C89.8054 312.637 89.8383 312.695 89.8745 312.753L89.9017 312.799C89.9391 312.859 89.9798 312.914 90.024 312.973H90.0444L90.1803 313.129L90.2109 313.161L90.3774 313.322L90.4182 313.359L90.6119 313.51H90.6425L90.8497 313.648H90.8803L91.1216 313.781L91.1725 313.808L91.441 313.927H91.4852L91.774 314.028H91.7978L92.1376 314.116H92.2021L92.5419 314.184H92.6065L92.9973 314.235C93.7551 314.313 94.7779 314.34 95.9604 314.336C95.9604 314.336 95.9604 314.377 95.9604 314.395C95.9604 314.414 95.9604 314.487 95.9604 314.533V314.593C95.9604 314.648 95.9604 314.698 95.9842 314.753V314.813C95.9955 314.871 96.0091 314.928 96.0249 314.983V315.038C96.0419 315.093 96.0623 315.148 96.0827 315.203V315.239C96.1065 315.295 96.1303 315.35 96.1575 315.405L96.1812 315.451C96.2107 315.509 96.2435 315.567 96.2798 315.625L96.307 315.671C96.3443 315.73 96.3851 315.785 96.4293 315.845H96.4463L96.5822 316.001L96.6128 316.033L96.7793 316.194L96.8201 316.23L97.0104 316.382H97.0409L97.2482 316.519H97.2788L97.5201 316.652L97.571 316.68L97.8395 316.799H97.8836L98.1725 316.9H98.1963L98.5361 316.987H98.6006L98.9404 317.056H99.005L99.3958 317.107C104.19 317.607 119.492 316.111 119.492 316.111V316.051V315.978C119.645 315.015 120.379 309.413 117.769 305.271C117.847 305.16 117.922 305.046 117.993 304.926C117.993 304.926 115.954 300.197 117.072 298.706C118.19 297.215 111.673 271.556 111.673 271.556C111.673 271.556 108.169 264.087 110.198 255.623C112.227 247.159 110.015 237.952 110.015 237.952C110.015 237.952 114.857 236.016 114.945 227.973C114.945 227.73 114.945 227.478 114.945 227.226C115.046 227.246 115.149 227.255 115.251 227.253C115.319 227.26 115.387 227.26 115.455 227.253C115.455 227.253 114.534 222.771 115.638 219.537C116.743 216.302 119.142 219.289 121.354 206.095C122.954 196.548 124.361 185.57 125.02 180.225C125.291 178.01 125.152 175.739 124.616 173.615V173.615ZM82.5416 201.599L80.8595 199.443C81.4168 199.755 82.0353 200.058 82.7251 200.36L89.0624 201.365C86.2352 201.709 83.5949 201.902 82.5416 201.613V201.599Z" fill="url(#paint1_linear_288_246)"/>
<path d="M98.59 200.342C98.59 200.342 85.5484 202.787 82.83 202.053L75.5854 192.759C75.5854 192.759 68.701 199.851 79.5713 204.499L99.8575 207.678L98.59 200.342Z" fill="#FDC2CC"/>
<path opacity="0.05" d="M98.59 200.342C98.59 200.342 85.5484 202.787 82.83 202.053L75.5854 192.759C75.5854 192.759 68.701 199.851 79.5713 204.499L99.8575 207.678L98.59 200.342Z" fill="black"/>
<path d="M73.0609 206.512L44.8777 195.961L38.5981 100.859H107.609L101.322 195.947L73.0609 206.512Z" fill="#264DE4"/>
<path d="M95.9397 189.896L101.312 108.64H73.1084V198.425L95.9397 189.896Z" fill="#2965F1"/>
<path d="M53.0127 143.896L53.7875 155.558H73.1223V143.896H53.0127ZM51.4564 120.288L52.2414 131.95H73.1189V120.288H51.4395H51.4564ZM73.1189 174.188H73.0815L63.4583 170.678L62.8432 161.375H54.1545L55.3642 179.689L73.0611 186.336H73.1019L73.1189 174.188Z" fill="#EBEBEB"/>
<path d="M59.2141 87.3212H64.8033V92.23H55.3408V75.5034H64.8033V80.4123H59.2141H58.7141V80.9123V86.8212V87.3212H59.2141ZM73.4858 86.0643H67.8965V75.5034H77.376V79.6416H71.7732H71.2732V80.1416V81.1692V81.6692H71.7732H77.3624V92.487H67.8965V88.0919H73.4858H73.9858V87.5919V86.5643V86.0643H73.4858ZM86.0415 86.0643H80.4522V75.5034H89.9487V79.6416H84.3289H83.8289V80.1416V81.1692V81.6692H84.3289H89.9181V92.487H80.4522V88.0919H86.0415H86.5415V87.5919V86.5643V86.0643H86.0415Z" fill="#FFF7FF" stroke="#113399"/>
<path d="M93.157 143.896L94.7166 120.288H73.061V131.95H85.2362L84.4512 143.877H73.061V155.539H83.7002L82.6808 170.678L73.061 174.197V186.331L90.7715 179.702L90.9007 177.73L92.9395 147.02L93.1502 143.887L93.157 143.896Z" fill="white"/>
<path d="M103.304 299.628L96.9629 307.206C96.9629 307.206 93.3406 308.431 91.3493 308.184C89.3581 307.936 88.4508 312.34 93.1605 312.831C97.8701 313.322 112.903 311.854 112.903 311.854C112.903 311.854 114.351 304.027 110.004 299.628H103.304Z" fill="#47465A"/>
<path opacity="0.05" d="M103.304 299.628L96.9629 307.206C96.9629 307.206 93.3406 308.431 91.3493 308.184C89.3581 307.936 88.4508 312.34 93.1605 312.831C97.8701 313.322 112.903 311.854 112.903 311.854C112.903 311.854 114.351 304.027 110.004 299.628H103.304Z" fill="black"/>
<path opacity="0.3" d="M113.127 308.473C113.116 309.365 113.04 310.253 112.899 311.125C112.899 311.125 97.8666 312.593 93.157 312.102C90.8905 311.868 89.9288 310.725 89.7589 309.634C89.5516 310.891 90.374 312.547 93.157 312.845C97.8666 313.336 112.899 311.868 112.899 311.868C113.077 310.753 113.153 309.613 113.127 308.473Z" fill="white"/>
<path d="M110.725 160.994C110.725 160.994 114.71 168.573 113.26 173.711C111.809 178.849 120.868 168.33 120.868 168.33C120.868 168.33 117.969 161.453 119.42 154.113L110.725 160.994Z" fill="#FDC2CC"/>
<path d="M109.637 302.564L103.303 310.143C103.303 310.143 99.6809 311.368 97.6897 311.12C95.6984 310.872 94.7912 315.276 99.5008 315.767C104.21 316.258 119.243 314.79 119.243 314.79C119.243 314.79 120.691 306.964 116.345 302.564H109.637Z" fill="#47465A"/>
<path d="M111.459 300.853C110.514 302.426 109.182 303.032 107.789 303.124C104.622 303.325 101.135 300.853 101.135 300.853C103.49 298.164 97.513 274.442 97.513 274.442C92.6233 271.262 92.9835 264.17 92.9835 264.17L94.567 225.68L94.9679 216.009L100.041 211.853L104.037 215.981L107.829 219.908C108.076 221.158 108.236 222.436 108.305 223.725C108.747 232.713 103.483 234.827 103.483 234.827C103.483 234.827 105.658 243.874 103.663 252.192C101.669 260.509 105.111 267.845 105.111 267.845C105.111 267.845 111.632 293.279 110.548 294.747C109.464 296.215 111.459 300.853 111.459 300.853Z" fill="#113399"/>
<path opacity="0.05" d="M111.459 300.853C110.514 302.426 109.182 303.032 107.789 303.124C104.622 303.325 101.135 300.853 101.135 300.853C103.49 298.164 97.513 274.442 97.513 274.442C92.6233 271.262 92.9835 264.17 92.9835 264.17L94.567 225.68L94.9679 216.009L100.041 211.853L104.037 215.981L107.829 219.908C108.076 221.158 108.236 222.436 108.305 223.725C108.747 232.713 103.483 234.827 103.483 234.827C103.483 234.827 105.658 243.874 103.663 252.192C101.669 260.509 105.111 267.845 105.111 267.845C105.111 267.845 111.632 293.279 110.548 294.747C109.464 296.215 111.459 300.853 111.459 300.853Z" fill="black"/>
<path d="M117.789 303.784C114.711 308.918 107.466 303.784 107.466 303.784C107.612 303.603 107.721 303.374 107.782 303.119C109.111 298.242 103.3 274.928 103.3 274.928C98.4102 271.749 97.8631 264.17 97.8631 264.17L96.582 224.982L96.4155 219.908L104.037 215.981L106.379 214.775L114.177 222.845C114.512 224.516 114.676 226.242 114.666 227.974C114.568 235.869 109.821 237.777 109.821 237.777C109.821 237.777 111.995 246.824 110.001 255.142C108.006 263.459 111.459 270.772 111.459 270.772C111.459 270.772 117.979 296.205 116.895 297.673C115.811 299.142 117.789 303.784 117.789 303.784Z" fill="#113399"/>
<path opacity="0.1" d="M114.667 227.974C113.1 227.671 109.93 225.125 108.302 223.744C107.68 223.216 107.283 222.863 107.283 222.863C107.283 222.863 105.652 216.748 101.306 221.395C99.8918 222.945 98.2952 224.164 96.5824 225.001C95.9281 225.314 95.2535 225.542 94.5674 225.684L94.9683 216.014L100.042 211.857L104.038 215.986L106.379 214.779L114.177 222.845C114.512 224.516 114.677 226.242 114.667 227.974V227.974Z" fill="black"/>
<path d="M124.47 181.046C123.824 186.295 122.431 197.103 120.868 206.457C118.693 219.417 116.338 216.481 115.254 219.661C114.17 222.84 115.074 227.239 115.074 227.239C113.263 227.483 107.286 222.106 107.286 222.106C107.286 222.106 105.655 215.991 101.309 220.638C96.9627 225.285 93.5205 225.037 93.5205 225.037C92.6132 216.968 99.3175 195.447 99.3175 195.447C99.3175 195.447 105.838 178.817 107.286 176.638C107.958 175.561 108.437 174.289 108.686 172.922C108.797 172.378 108.874 171.822 108.917 171.261C111.272 171.018 117.072 165.637 117.072 165.637L121.602 164.659V167.839C121.655 167.871 121.706 167.913 121.751 167.963C122.495 168.729 123.45 171.995 124.086 174.569C124.606 176.653 124.738 178.877 124.47 181.046Z" fill="#661E7B" fill-opacity="0.91"/>
<path d="M103.304 204.012L100.962 203.645L83.0175 200.833C72.1438 196.186 79.0316 189.093 79.0316 189.093L86.2762 198.388C88.366 198.952 96.5655 197.635 100.239 197.012C101.34 196.819 102.036 196.69 102.036 196.69L103.304 204.012Z" fill="#FDC2CC"/>
<path opacity="0.1" d="M120.868 171C120.868 171 116.158 165.866 109.08 182.492C102.002 199.117 100.385 196.429 100.385 196.429C100.385 196.429 101.832 203.769 101.109 205.233C101.109 205.233 105.998 204.742 107.809 205.233C109.621 205.724 120.851 186.648 120.851 186.648C120.851 186.648 126.665 175.89 120.868 171Z" fill="black"/>
<path opacity="0.1" d="M120.687 170.022C120.687 170.022 115.978 164.889 108.913 181.514C101.849 198.14 100.218 195.452 100.218 195.452C100.218 195.452 105.831 203.765 107.642 204.255C109.454 204.746 120.684 185.671 120.684 185.671C120.684 185.671 126.484 174.913 120.687 170.022Z" fill="black"/>
<path opacity="0.1" d="M100.959 203.659C101.033 201.847 100.527 198.663 100.235 197.012C101.336 196.819 102.032 196.69 102.032 196.69L103.3 204.031L100.959 203.659Z" fill="black"/>
<path d="M120.868 170.509C120.868 170.509 116.158 165.375 109.08 182.005C102.002 198.636 100.385 195.943 100.385 195.943C100.385 195.943 101.832 203.283 101.109 204.746C101.109 204.746 105.998 204.255 107.809 204.746C109.621 205.237 120.851 186.162 120.851 186.162C120.851 186.162 126.665 175.399 120.868 170.509Z" fill="#661E7B" fill-opacity="0.91"/>
<path opacity="0.1" d="M119.614 154.613L110.905 161.453C111.273 162.174 111.614 162.922 111.924 163.691C112.425 163.829 112.935 163.898 113.447 163.898C115.767 163.898 116.845 160.609 118.248 158.393C118.146 156.631 119.213 156.585 119.614 154.613Z" fill="black"/>
<path d="M113.26 163.421C117.461 163.421 120.868 158.822 120.868 153.149C120.868 147.476 117.461 142.877 113.26 142.877C109.058 142.877 105.651 147.476 105.651 153.149C105.651 158.822 109.058 163.421 113.26 163.421Z" fill="#FDC2CC"/>
<path opacity="0.1" d="M103.643 144.841C104.41 143.779 105.407 143.072 106.491 142.822C107.548 142.515 108.706 142.423 109.549 141.51C110.504 140.478 110.932 138.515 112.111 138.074C112.623 137.936 113.154 137.993 113.644 138.239C115.524 139.007 117.194 140.511 118.442 142.561C118.737 143.149 119.113 143.655 119.549 144.052C119.809 144.2 120.063 144.367 120.31 144.552C120.581 144.842 120.794 145.219 120.929 145.648C121.778 147.964 121.974 150.617 121.479 153.112C121.184 154.585 120.654 155.952 120.338 157.42C120.022 158.888 119.944 160.549 120.518 161.861C119.961 162.246 119.257 161.76 118.907 161.058C118.557 160.356 118.452 159.494 118.268 158.682C117.907 157.088 117.228 155.659 116.304 154.553C115.733 153.874 114.714 153.415 114.316 154.291C114.163 154.631 114.174 155.067 114.041 155.42C113.783 156.113 113.022 156.25 112.536 155.879C112.057 155.433 111.721 154.759 111.595 153.993C110.85 150.585 109.576 148.442 106.878 149.897C105.859 150.438 104.686 150.814 103.718 149.897C102.478 148.667 102.726 146.231 103.643 144.841Z" fill="black"/>
<path d="M103.643 144.593C104.41 143.531 105.407 142.824 106.491 142.575C107.548 142.267 108.706 142.175 109.549 141.263C110.504 140.23 110.932 138.267 112.111 137.826C112.623 137.688 113.154 137.745 113.644 137.992C115.524 138.759 117.194 140.263 118.442 142.313C118.737 142.901 119.113 143.407 119.549 143.804C119.809 143.953 120.063 144.119 120.31 144.304C120.581 144.594 120.794 144.971 120.929 145.401C121.778 147.716 121.974 150.369 121.479 152.865C121.184 154.337 120.654 155.704 120.338 157.172C120.022 158.64 119.944 160.301 120.518 161.613C119.961 161.999 119.257 161.512 118.907 160.81C118.557 160.109 118.452 159.246 118.268 158.434C117.907 156.84 117.228 155.411 116.304 154.305C115.733 153.626 114.714 153.167 114.316 154.044C114.163 154.383 114.174 154.819 114.041 155.172C113.783 155.865 113.022 156.003 112.536 155.631C112.057 155.185 111.721 154.512 111.595 153.745C110.85 150.337 109.576 148.194 106.878 149.649C105.859 150.19 104.686 150.566 103.718 149.649C102.478 148.424 102.726 145.988 103.643 144.593Z" fill="#8F5A6A"/>
<path opacity="0.05" d="M121.741 167.944H118.061C118.061 167.944 110.817 172.835 110.636 172.592C110.514 172.426 109.393 172.711 108.683 172.908C108.794 172.364 108.871 171.809 108.914 171.247C111.269 171.004 117.069 165.623 117.069 165.623L121.599 164.646V167.825C121.65 167.857 121.697 167.897 121.741 167.944V167.944Z" fill="black"/>
<path opacity="0.3" d="M119.465 311.404C119.454 312.296 119.378 313.184 119.237 314.056C119.237 314.056 104.204 315.524 99.4944 315.033C97.2279 314.799 96.2662 313.657 96.0963 312.565C95.889 313.822 96.7114 315.478 99.4944 315.776C104.204 316.267 119.237 314.799 119.237 314.799C119.414 313.684 119.49 312.544 119.465 311.404Z" fill="white"/>
<g opacity="0.05">
<path opacity="0.05" d="M99.5862 220.395C97.143 223.01 94.9819 224.065 93.5615 224.524C93.5615 224.707 93.5887 224.886 93.6091 225.06C93.6091 225.06 97.0513 225.303 101.397 220.661C102.071 219.882 102.867 219.32 103.725 219.018C102.777 218.39 101.425 218.431 99.5862 220.395Z" fill="#661E7B" fill-opacity="0.91"/>
<path opacity="0.05" d="M124.168 174.546C123.519 171.972 122.577 168.71 121.833 167.94C121.788 167.89 121.737 167.848 121.684 167.816C121.684 167.816 120.185 167.884 120.236 167.94C120.98 168.706 121.708 171.729 122.357 174.298C122.883 176.386 123.018 178.618 122.751 180.794C122.105 186.042 120.712 196.851 119.149 206.205C116.974 219.165 114.619 216.229 113.535 219.408C112.645 222.014 113.09 225.436 113.284 226.588C113.87 226.984 114.512 227.204 115.166 227.235C115.166 227.235 114.259 222.835 115.346 219.656C116.434 216.477 118.789 219.413 120.96 206.453C122.533 197.076 123.916 186.267 124.562 181.042C124.829 178.866 124.694 176.634 124.168 174.546V174.546Z" fill="#661E7B" fill-opacity="0.91"/>
</g>
<path d="M145.218 220.225C145.841 219.539 146.295 218.615 146.52 217.573C146.69 216.518 146.357 215.256 145.609 214.871C144.773 214.44 143.879 215.22 143.203 216.013C142.527 216.807 141.749 217.706 140.862 217.536C141.318 216.979 141.659 216.271 141.852 215.482C142.045 214.693 142.083 213.851 141.963 213.036C141.925 212.698 141.819 212.381 141.657 212.118C141.192 211.449 140.352 211.738 139.795 212.265C138.028 213.944 137.535 217.183 137.525 220.101C137.348 219.05 137.498 217.954 137.491 216.89C137.484 215.825 137.267 214.596 136.594 214.036C136.177 213.733 135.708 213.583 135.235 213.6C134.44 213.559 133.556 213.669 133.013 214.454C132.333 215.426 132.513 217.064 133.101 218.124C133.689 219.183 134.579 219.867 135.401 220.61C136.06 221.139 136.623 221.862 137.046 222.725C137.096 222.845 137.137 222.971 137.168 223.101H142.146C143.262 222.334 144.295 221.366 145.218 220.225V220.225Z" fill="#113399"/>
<path d="M154.362 306.367C155.154 305.372 155.898 304.197 156.129 302.77C156.36 301.344 155.908 299.628 154.896 299.1C153.764 298.513 152.551 299.559 151.633 300.646C150.716 301.733 149.663 302.94 148.463 302.711C149.081 301.954 149.543 300.995 149.804 299.925C150.066 298.856 150.118 297.713 149.955 296.609C149.902 296.153 149.759 295.725 149.54 295.37C148.912 294.453 147.77 294.852 147.019 295.568C144.64 297.862 143.961 302.234 143.944 306.188C143.702 304.761 143.906 303.275 143.9 301.812C143.893 300.348 143.597 298.729 142.683 297.94C142.114 297.526 141.474 297.324 140.828 297.352C139.751 297.297 138.551 297.444 137.817 298.508C136.903 299.83 137.137 302.045 137.936 303.5C138.735 304.954 139.941 305.867 141.052 306.872C141.944 307.59 142.705 308.57 143.278 309.739C143.346 309.902 143.401 310.074 143.444 310.253H150.196C151.708 309.217 153.109 307.91 154.362 306.367V306.367Z" fill="#113399"/>
</g>
<defs>
<linearGradient id="paint0_linear_288_246" x1="273.249" y1="282.956" x2="273.249" y2="127.642" gradientUnits="userSpaceOnUse">
<stop stop-color="#808080" stop-opacity="0.25"/>
<stop offset="0.54" stop-color="#808080" stop-opacity="0.12"/>
<stop offset="1" stop-color="#808080" stop-opacity="0.1"/>
</linearGradient>
<linearGradient id="paint1_linear_288_246" x1="19724.8" y1="140816" x2="19724.8" y2="69266.9" gradientUnits="userSpaceOnUse">
<stop stop-color="#808080" stop-opacity="0.25"/>
<stop offset="0.54" stop-color="#808080" stop-opacity="0.12"/>
<stop offset="1" stop-color="#808080" stop-opacity="0.1"/>
</linearGradient>
<clipPath id="clip0_288_246">
<rect width="350" height="334.833" fill="white"/>
</clipPath>
</defs>
</svg>
