<svg width="1440" height="228" viewBox="0 0 1440 228" fill="none" xmlns="http://www.w3.org/2000/svg">
<path fill-rule="evenodd" clip-rule="evenodd" d="M1581.6 -3.96343L1506.08 -15.1168C1430.57 -26.2701 1279.53 -49.861 1130.61 -49.0625C979.707 -48.2533 828.932 -23.044 678.308 30.418C529.67 83.8694 379.198 165.584 228.416 189.509C77.6409 214.719 -71.4723 179.559 -147.015 163.269L-222.564 145.694L-222 251L-146.547 250.596C-71.0935 250.191 77.8268 249.392 228.733 248.583C379.639 247.774 530.545 246.965 679.465 246.166C830.371 245.357 981.277 244.548 1132.18 243.739C1281.1 242.94 1432.01 242.131 1507.46 241.726L1582.92 241.322L1581.6 -3.96343Z" fill="#113399"/>
</svg>
