<svg  viewBox="0 0 1114 613" fill="none" xmlns="http://www.w3.org/2000/svg">
<g clip-path="url(#clip0_293_241)">
<path d="M928.902 96.25H476.902V189.25H928.902V96.25Z" stroke="#3F3D56" stroke-miterlimit="10"/>
<path d="M896.902 114.25H444.902V207.25H896.902V114.25Z" fill="#113399"/>
<path d="M159.171 25.4999C163.037 25.4999 166.171 22.3659 166.171 18.4998C166.171 14.6338 163.037 11.4998 159.171 11.4998C155.305 11.4998 152.171 14.6338 152.171 18.4998C152.171 22.3659 155.305 25.4999 159.171 25.4999Z" fill="#6E2F84"/>
<path d="M183.171 25.4999C187.037 25.4999 190.171 22.3659 190.171 18.4998C190.171 14.6338 187.037 11.4998 183.171 11.4998C179.305 11.4998 176.171 14.6338 176.171 18.4998C176.171 22.3659 179.305 25.4999 183.171 25.4999Z" fill="#113399"/>
<path d="M207.171 25.4999C211.037 25.4999 214.171 22.3659 214.171 18.4998C214.171 14.6338 211.037 11.4998 207.171 11.4998C203.305 11.4998 200.171 14.6338 200.171 18.4998C200.171 22.3659 203.305 25.4999 207.171 25.4999Z" fill="#6A2D85"/>
<path d="M980.171 0.5H140.171V546.5H980.171V0.5Z" stroke="#3F3D56" stroke-miterlimit="10"/>
<path d="M140.171 30.835H980.171" stroke="#3F3D56" stroke-miterlimit="10"/>
<path d="M161.171 22.4999C165.037 22.4999 168.171 19.3659 168.171 15.4998C168.171 11.6338 165.037 8.49976 161.171 8.49976C157.305 8.49976 154.171 11.6338 154.171 15.4998C154.171 19.3659 157.305 22.4999 161.171 22.4999Z" stroke="#3F3D56" stroke-miterlimit="10"/>
<path d="M185.171 22.4999C189.037 22.4999 192.171 19.3659 192.171 15.4998C192.171 11.6338 189.037 8.49976 185.171 8.49976C181.305 8.49976 178.171 11.6338 178.171 15.4998C178.171 19.3659 181.305 22.4999 185.171 22.4999Z" stroke="#3F3D56" stroke-miterlimit="10"/>
<path d="M209.171 22.4999C213.037 22.4999 216.171 19.3659 216.171 15.4998C216.171 11.6338 213.037 8.49976 209.171 8.49976C205.305 8.49976 202.171 11.6338 202.171 15.4998C202.171 19.3659 205.305 22.4999 209.171 22.4999Z" stroke="#3F3D56" stroke-miterlimit="10"/>
<path d="M32.2163 204.549C35.2784 203.194 37.9842 201.148 40.1203 198.569C42.2564 195.991 43.7645 192.952 44.5257 189.691C45.2869 186.431 45.2804 183.038 44.5067 179.781C43.733 176.523 42.2133 173.49 40.0673 170.92C37.9213 168.35 35.2077 166.313 32.1404 164.971C29.0731 163.628 25.7359 163.017 22.3919 163.184C19.048 163.352 15.7885 164.293 12.8706 165.935C9.95267 167.577 7.45598 169.875 5.57732 172.646L13.6742 180.298L3.27202 177.065C1.22632 182.395 1.38032 188.319 3.70016 193.535C4.50599 195.369 5.56762 197.079 6.85338 198.615C9.86086 202.227 13.9639 204.76 18.5406 205.831C23.1174 206.902 27.9185 206.452 32.2163 204.549V204.549Z" fill="#DC3D6D"/>
<path d="M140.39 279.604C132.495 274.064 132.494 262.435 134.455 252.993C136.416 243.55 139.41 233.248 134.958 224.693C128.56 212.397 111.743 211.658 97.9456 210.344C87.7073 209.368 77.6209 207.181 67.8973 203.83C63.9989 202.486 60.095 200.917 56.9027 198.307C52.3053 194.548 49.6085 189.004 47.0903 183.626C38.7013 165.711 30.7383 147.603 23.2011 129.305" stroke="#3F3D56" stroke-miterlimit="10"/>
<path d="M30.8745 201.866C33.9366 200.511 36.6423 198.465 38.7785 195.886C40.9146 193.308 42.4227 190.269 43.1839 187.008C43.9451 183.748 43.9386 180.355 43.1649 177.098C42.3912 173.84 40.8714 170.807 38.7254 168.237C36.5794 165.667 33.8659 163.63 30.7986 162.288C27.7313 160.945 24.3941 160.334 21.0501 160.501C17.7061 160.669 14.4467 161.61 11.5287 163.252C8.61081 164.894 6.11412 167.191 4.23547 169.963L12.3324 177.615L1.93017 174.382C-0.115536 179.712 0.0384563 185.636 2.3583 190.852C3.16413 192.686 4.22576 194.396 5.51153 195.932C8.519 199.544 12.622 202.077 17.1988 203.148C21.7755 204.219 26.5766 203.769 30.8745 201.866V201.866Z" stroke="#3F3D56" stroke-miterlimit="10"/>
<path d="M4.52459 141.909C3.05556 138.596 2.44403 134.967 2.74635 131.355C3.04866 127.744 4.2551 124.266 6.2545 121.244L14.8649 127.642L9.55083 117.342C12.9032 114.217 17.1617 112.239 21.7116 111.693C26.2615 111.146 30.8673 112.06 34.8641 114.302C38.8609 116.544 42.0418 119.998 43.9476 124.165C45.8534 128.333 46.3854 132.998 45.4669 137.488C44.5484 141.977 42.2269 146.059 38.8375 149.143C35.4481 152.227 31.1663 154.154 26.6102 154.646C22.0541 155.139 17.4595 154.17 13.4897 151.881C9.51998 149.591 6.38051 146.099 4.52459 141.909V141.909Z" fill="#DC3D6D"/>
<path d="M2.73539 138.332C1.26637 135.019 0.654846 131.389 0.957163 127.778C1.25948 124.166 2.46592 120.689 4.4653 117.666L13.0757 124.064L7.76166 113.764C11.114 110.64 15.3725 108.661 19.9224 108.115C24.4724 107.569 29.0782 108.482 33.075 110.724C37.0717 112.966 40.2527 116.42 42.1584 120.587C44.0642 124.755 44.5963 129.42 43.6778 133.91C42.7593 138.4 40.4377 142.481 37.0484 145.565C33.659 148.65 29.3771 150.577 24.821 151.069C20.2649 151.561 15.6703 150.592 11.7006 148.303C7.73082 146.014 4.59135 142.522 2.73543 138.332L2.73539 138.332Z" stroke="#3F3D56" stroke-miterlimit="10"/>
<path d="M95.3566 213.127C100.21 210.977 104.103 207.116 106.292 202.28C108.482 197.444 108.815 191.971 107.229 186.905C105.643 181.839 102.249 177.534 97.6922 174.81C93.1359 172.086 87.7365 171.134 82.5232 172.135L86.6071 180.05L77.8973 173.574C77.8786 173.581 77.8605 173.588 77.8431 173.597C75.2476 174.747 72.9039 176.397 70.946 178.453C68.9881 180.509 67.4543 182.93 66.4321 185.578C64.3676 190.927 64.5126 196.877 66.835 202.119C69.1574 207.361 73.4671 211.466 78.8159 213.53C84.1648 215.594 90.1146 215.45 95.3566 213.127V213.127Z" fill="#DC3D6D"/>
<path d="M93.4189 209.624C98.2724 207.473 102.165 203.612 104.354 198.776C106.544 193.94 106.878 188.468 105.292 183.402C103.706 178.336 100.311 174.03 95.7545 171.306C91.1982 168.582 85.7988 167.63 80.5856 168.631L84.6694 176.546L75.9596 170.071C75.941 170.077 75.9228 170.085 75.9054 170.094C73.3089 171.243 70.9642 172.893 69.0054 174.949C67.0465 177.004 65.5118 179.426 64.4889 182.075C63.4661 184.723 62.9751 187.548 63.044 190.387C63.1129 193.225 63.7404 196.022 64.8906 198.619C66.0408 201.215 67.6912 203.559 69.7475 205.517C71.8038 207.475 74.2257 209.009 76.875 210.031C79.5242 211.053 82.3488 211.543 85.1875 211.473C88.0261 211.403 90.8232 210.775 93.4189 209.624V209.624Z" stroke="#3F3D56" stroke-miterlimit="10"/>
<path d="M103.986 254.613C107.987 257.54 112.872 259.003 117.823 258.756C122.774 258.51 127.49 256.568 131.179 253.257C134.869 249.946 137.307 245.467 138.087 240.572C138.866 235.676 137.938 230.662 135.458 226.369C132.979 222.076 129.099 218.767 124.469 216.995C119.84 215.223 114.741 215.098 110.03 216.639C105.318 218.18 101.28 221.294 98.5921 225.46C95.9042 229.625 94.7302 234.588 95.267 239.516L112.256 243.302L97.4328 246.867C98.9653 249.936 101.213 252.593 103.986 254.613V254.613Z" fill="#DC3D6D"/>
<path d="M102.645 251.929C106.645 254.857 111.53 256.32 116.481 256.073C121.432 255.827 126.148 253.885 129.837 250.574C133.527 247.263 135.965 242.784 136.745 237.889C137.524 232.993 136.596 227.978 134.117 223.686C131.637 219.393 127.757 216.083 123.128 214.312C118.498 212.54 113.4 212.415 108.688 213.956C103.976 215.497 99.9381 218.611 97.2502 222.776C94.5623 226.942 93.3883 231.904 93.9251 236.832L110.914 240.619L96.0909 244.184C97.6234 247.253 99.8711 249.91 102.645 251.929V251.929Z" stroke="#3F3D56" stroke-miterlimit="10"/>
<path d="M1041.56 458.39C1044.4 459.905 1047.56 460.739 1050.78 460.825C1054 460.911 1057.2 460.248 1060.12 458.887C1063.05 457.527 1065.61 455.506 1067.62 452.985C1069.63 450.463 1071.02 447.51 1071.69 444.357C1072.37 441.205 1072.3 437.939 1071.49 434.818C1070.69 431.698 1069.17 428.806 1067.05 426.373C1064.94 423.939 1062.29 422.03 1059.31 420.795C1056.33 419.56 1053.11 419.034 1049.9 419.257L1048.91 429.937L1045.18 420.137C1039.93 421.754 1035.53 425.39 1032.96 430.246C1032.05 431.946 1031.38 433.766 1030.98 435.653C1030.03 440.077 1030.55 444.69 1032.46 448.793C1034.37 452.896 1037.56 456.265 1041.56 458.39Z" fill="#DC3D6D"/>
<path d="M1048.97 584.922C1048.48 575.651 1057.29 568.741 1065.6 564.616C1073.92 560.491 1083.5 556.638 1087.34 548.183C1092.85 536.032 1083.42 522.854 1076.22 511.622C1070.87 503.287 1066.54 494.347 1063.3 484.991C1062 481.24 1060.87 477.35 1060.95 473.381C1061.07 467.665 1063.66 462.329 1066.24 457.226C1074.83 440.228 1083.81 423.438 1093.2 406.857" stroke="#3F3D56" stroke-miterlimit="10"/>
<path d="M1042.79 455.78C1045.64 457.295 1048.79 458.128 1052.02 458.214C1055.24 458.301 1058.44 457.637 1061.36 456.277C1064.28 454.916 1066.85 452.895 1068.86 450.374C1070.86 447.853 1072.26 444.899 1072.93 441.747C1073.6 438.594 1073.53 435.329 1072.73 432.208C1071.92 429.087 1070.4 426.196 1068.29 423.762C1066.17 421.329 1063.52 419.419 1060.55 418.184C1057.57 416.95 1054.35 416.423 1051.13 416.647L1050.14 427.326L1046.41 417.526C1041.16 419.143 1036.77 422.779 1034.19 427.636C1033.28 429.335 1032.62 431.156 1032.22 433.042C1031.27 437.466 1031.79 442.08 1033.7 446.183C1035.6 450.286 1038.8 453.655 1042.79 455.78V455.78Z" stroke="#DC3D6D" stroke-miterlimit="10"/>
<path d="M1072.55 400.198C1074.19 397.117 1076.57 394.498 1079.49 392.581C1082.41 390.664 1085.76 389.512 1089.23 389.231L1089.5 399.554L1094.15 389.409C1098.51 390.092 1102.54 392.143 1105.65 395.265C1108.77 398.386 1110.81 402.418 1111.49 406.778C1112.17 411.137 1111.44 415.599 1109.42 419.518C1107.39 423.438 1104.17 426.613 1100.23 428.584C1096.28 430.556 1091.81 431.223 1087.46 430.488C1083.11 429.753 1079.11 427.654 1076.03 424.495C1072.95 421.337 1070.95 417.281 1070.33 412.914C1069.7 408.546 1070.48 404.094 1072.55 400.198Z" fill="#DC3D6D"/>
<path d="M1074.2 396.718C1075.84 393.637 1078.22 391.017 1081.14 389.1C1084.05 387.184 1087.4 386.031 1090.88 385.75L1091.15 396.073L1095.8 385.929C1100.15 386.612 1104.18 388.662 1107.3 391.784C1110.42 394.906 1112.46 398.937 1113.14 403.297C1113.81 407.656 1113.09 412.118 1111.06 416.038C1109.04 419.957 1105.82 423.132 1101.87 425.104C1097.93 427.075 1093.46 427.742 1089.11 427.007C1084.76 426.272 1080.75 424.173 1077.67 421.015C1074.59 417.856 1072.6 413.8 1071.97 409.433C1071.35 405.066 1072.13 400.613 1074.2 396.718Z" stroke="#3F3D56" stroke-miterlimit="10"/>
<path d="M1072.57 511.314C1077.08 513.713 1082.32 514.368 1087.29 513.153C1092.25 511.938 1096.59 508.94 1099.49 504.729C1102.38 500.517 1103.63 495.388 1102.98 490.318C1102.34 485.248 1099.85 480.593 1096 477.239L1092.43 485.035L1092.16 474.59C1092.14 474.58 1092.13 474.57 1092.11 474.563C1089.7 473.278 1087.05 472.481 1084.33 472.218C1081.61 471.955 1078.86 472.23 1076.25 473.029C1073.63 473.828 1071.2 475.134 1069.09 476.873C1066.98 478.612 1065.24 480.749 1063.95 483.163C1062.67 485.577 1061.87 488.221 1061.61 490.942C1061.35 493.664 1061.63 496.41 1062.43 499.025C1063.23 501.639 1064.54 504.07 1066.28 506.179C1068.02 508.287 1070.16 510.032 1072.57 511.314V511.314Z" fill="#DC3D6D"/>
<path d="M1074.07 507.765C1078.59 510.164 1083.82 510.819 1088.79 509.604C1093.75 508.389 1098.1 505.391 1100.99 501.179C1103.89 496.968 1105.13 491.839 1104.49 486.769C1103.84 481.699 1101.36 477.044 1097.5 473.69L1093.93 481.486L1093.66 471.041C1093.65 471.03 1093.63 471.021 1093.61 471.014C1091.2 469.729 1088.56 468.933 1085.84 468.67C1083.11 468.407 1080.37 468.683 1077.75 469.482C1075.14 470.281 1072.71 471.587 1070.6 473.326C1068.49 475.065 1066.74 477.202 1065.46 479.616C1064.18 482.03 1063.38 484.673 1063.12 487.394C1062.86 490.115 1063.13 492.861 1063.93 495.475C1064.73 498.09 1066.04 500.52 1067.78 502.629C1069.52 504.738 1071.66 506.483 1074.07 507.765V507.765Z" stroke="#3F3D56" stroke-miterlimit="10"/>
<path d="M1046.27 542.499C1046.43 547.269 1048.23 551.838 1051.36 555.442C1054.48 559.046 1058.76 561.464 1063.46 562.292C1068.16 563.119 1073 562.305 1077.17 559.987C1081.34 557.669 1084.59 553.987 1086.37 549.558C1088.15 545.13 1088.35 540.224 1086.94 535.665C1085.53 531.105 1082.6 527.169 1078.63 524.516C1074.66 521.862 1069.9 520.654 1065.15 521.092C1060.4 521.531 1055.94 523.59 1052.53 526.925L1059.75 542.043L1048.25 532.933C1046.83 535.917 1046.16 539.198 1046.27 542.499Z" fill="#DC3D6D"/>
<path d="M1047.51 539.888C1047.67 544.658 1049.46 549.228 1052.59 552.831C1055.72 556.435 1059.99 558.854 1064.69 559.681C1069.39 560.509 1074.23 559.695 1078.41 557.377C1082.58 555.058 1085.82 551.376 1087.6 546.948C1089.38 542.519 1089.58 537.614 1088.17 533.054C1086.77 528.495 1083.83 524.558 1079.86 521.905C1075.9 519.252 1071.14 518.043 1066.39 518.482C1061.64 518.92 1057.18 520.979 1053.76 524.314L1060.99 539.432L1049.48 530.322C1048.07 533.307 1047.39 536.588 1047.51 539.888Z" stroke="#3F3D56" stroke-miterlimit="10"/>
<path d="M115.216 118.549C118.279 117.194 120.984 115.148 123.12 112.569C125.257 109.991 126.765 106.952 127.526 103.691C128.287 100.431 128.28 97.0382 127.507 93.7807C126.733 90.5231 125.213 87.4898 123.067 84.9197C120.921 82.3497 118.208 80.3133 115.14 78.9709C112.073 77.6285 108.736 77.0169 105.392 77.1843C102.048 77.3516 98.7886 78.2934 95.8707 79.9353C92.9527 81.5773 90.456 83.8745 88.5774 86.646L96.6743 94.2979L86.2721 91.0651C84.2264 96.3948 84.3804 102.319 86.7002 107.535C87.5061 109.369 88.5677 111.079 89.8534 112.615C92.8609 116.227 96.9639 118.76 101.541 119.831C106.117 120.902 110.919 120.452 115.216 118.549V118.549Z" fill="#DC3D6D"/>
<path d="M139.903 112.307C135.305 108.548 132.609 103.004 130.09 97.6263C121.701 79.7105 113.738 61.6034 106.201 43.3049" stroke="#3F3D56" stroke-miterlimit="10"/>
<path d="M113.874 115.865C116.937 114.511 119.642 112.465 121.778 109.886C123.915 107.308 125.423 104.269 126.184 101.008C126.945 97.7479 126.939 94.3551 126.165 91.0976C125.391 87.84 123.871 84.8067 121.725 82.2367C119.579 79.6666 116.866 77.6302 113.799 76.2878C110.731 74.9454 107.394 74.3338 104.05 74.5012C100.706 74.6685 97.4467 75.6103 94.5287 77.2522C91.6108 78.8942 89.1141 81.1914 87.2354 83.9629L95.3323 91.6148L84.9302 88.382C82.8845 93.7117 83.0385 99.6356 85.3583 104.852C86.1641 106.686 87.2258 108.396 88.5115 109.932C91.519 113.544 95.622 116.077 100.199 117.148C104.776 118.219 109.577 117.769 113.874 115.865V115.865Z" stroke="#3F3D56" stroke-miterlimit="10"/>
<path d="M87.5245 55.9094C86.0555 52.5963 85.444 48.9668 85.7463 45.3552C86.0486 41.7437 87.2551 38.2663 89.2544 35.2435L97.8649 41.6415L92.5508 31.3416C95.9031 28.2172 100.162 26.239 104.712 25.6926C109.261 25.1462 113.867 26.0599 117.864 28.3017C121.861 30.5436 125.042 33.9976 126.948 38.1651C128.853 42.3327 129.385 46.998 128.467 51.4876C127.548 55.9772 125.227 60.0587 121.837 63.1429C118.448 66.2271 114.166 68.1544 109.61 68.6465C105.054 69.1385 100.459 68.17 96.4897 65.8806C92.5199 63.5912 89.3805 60.0994 87.5245 55.9095V55.9094Z" fill="#DC3D6D"/>
<path d="M85.7354 52.3318C84.2664 49.0187 83.6548 45.3892 83.9572 41.7776C84.2595 38.1661 85.4659 34.6887 87.4653 31.6659L96.0757 38.0639L90.7617 27.764C94.114 24.6395 98.3726 22.6613 102.922 22.1149C107.472 21.5685 112.078 22.4822 116.075 24.7241C120.072 26.966 123.253 30.42 125.158 34.5875C127.064 38.755 127.596 43.4204 126.678 47.91C125.759 52.3996 123.438 56.4811 120.048 59.5653C116.659 62.6495 112.377 64.5768 107.821 65.0689C103.265 65.5609 98.6703 64.5923 94.7006 62.3029C90.7308 60.0135 87.5914 56.5218 85.7354 52.3319L85.7354 52.3318Z" stroke="#3F3D56" stroke-miterlimit="10"/>
<path d="M403.898 30.835V547.276" stroke="#3F3D56" stroke-miterlimit="10"/>
<path d="M645.402 284.75H498.402V304.75H645.402V284.75Z" fill="#F2F2F2"/>
<path d="M876.402 284.75H729.402V304.75H876.402V284.75Z" fill="#F2F2F2"/>
<path d="M653.402 274.75H506.402V294.75H653.402V274.75Z" stroke="#3F3D56" stroke-miterlimit="10"/>
<path d="M645.402 439.75H498.402V459.75H645.402V439.75Z" fill="#F2F2F2"/>
<path d="M653.402 429.75H506.402V449.75H653.402V429.75Z" stroke="#3F3D56" stroke-miterlimit="10"/>
<path d="M876.902 360.25H498.902V380.25H876.902V360.25Z" fill="#F2F2F2"/>
<path d="M884.902 352.25H506.902V372.25H884.902V352.25Z" stroke="#3F3D56" stroke-miterlimit="10"/>
<path d="M884.402 274.75H737.402V294.75H884.402V274.75Z" stroke="#3F3D56" stroke-miterlimit="10"/>
<path d="M931.067 216.187C931.38 217.266 931.782 218.317 932.268 219.33C937.67 232.026 937.905 246.33 932.921 259.196C936.509 258.972 940.093 259.552 943.677 259.829C947.262 260.107 950.972 260.061 954.305 258.658C957.637 257.255 960.538 254.249 961.024 250.541C961.679 245.534 958.035 241.167 954.836 237.367C951.576 233.495 948.427 229.224 947.462 224.174C946.402 218.622 947.911 212.113 944.404 207.788C944.097 207.372 943.698 207.032 943.239 206.794C941.355 205.931 936.45 205.958 934.555 207.027C931.636 208.673 930.349 213.013 931.067 216.187Z" fill="#3F3D56"/>
<path d="M1030.37 578.328C1030.14 579.999 1029.75 581.643 1029.19 583.235C1029.19 583.235 1025.56 591.597 1010.62 589.342C1000.85 587.867 1000.92 583.292 1002.54 579.75C1003.27 578.275 1004.17 576.884 1005.2 575.602C1006.66 573.639 1006.51 566.149 1007.02 559.319C1007.53 552.484 1010.62 552.135 1010.62 552.135L1010.8 559.825C1016.62 552.191 1020.69 561.133 1020.69 561.133C1020.69 561.133 1028.96 561.305 1027.95 557.064C1026.87 552.545 1025.26 545.391 1025.26 545.391C1025.26 545.391 1029.27 547.249 1029.99 548.558C1030.72 549.866 1029.85 567.388 1029.19 569.059C1028.54 570.729 1029.19 575.24 1030.14 576.548C1030.41 577.101 1030.49 577.725 1030.37 578.328V578.328Z" fill="#3F3D56"/>
<path d="M1027.61 556.614C1027.61 558.346 1027.06 560.032 1026.03 561.428C1025.01 562.824 1023.56 563.858 1021.91 564.379C1020.31 564.885 1018.61 565.017 1016.95 564.764C1015.29 564.51 1013.71 563.879 1012.33 562.917C1011.5 562.335 1010.83 561.537 1010.42 560.608C1010 559.679 1009.84 558.655 1009.96 557.644L1010.19 555.712L1011.03 548.667L1012.18 538.962C1012.18 538.962 1024.57 532.654 1023.74 535.036C1023.43 535.926 1024.12 539.93 1025.1 544.597C1025.8 547.934 1026.64 551.607 1027.39 554.721C1027.54 555.341 1027.61 555.977 1027.61 556.614V556.614Z" fill="#FBBEBE"/>
<path opacity="0.1" d="M1009.2 556.082C1009.2 556.082 1019.92 543.487 1028.7 557.227L1027.23 566.03H1009.2V556.082Z" fill="black"/>
<path d="M1009.2 556.955C1009.2 556.955 1019.92 544.36 1028.7 558.1L1027.23 566.902H1009.2V556.955Z" fill="#3F3D56"/>
<path d="M1023.14 564.721C1023.74 564.721 1024.23 564.233 1024.23 563.631C1024.23 563.029 1023.74 562.54 1023.14 562.54C1022.54 562.54 1022.05 563.029 1022.05 563.631C1022.05 564.233 1022.54 564.721 1023.14 564.721Z" fill="#F2F2F2"/>
<path d="M1009.2 562.974C1009.8 562.974 1010.29 562.485 1010.29 561.883C1010.29 561.281 1009.8 560.793 1009.2 560.793C1008.6 560.793 1008.11 561.281 1008.11 561.883C1008.11 562.485 1008.6 562.974 1009.2 562.974Z" fill="#F2F2F2"/>
<path d="M1019.38 572.112C1019.98 572.112 1020.47 571.624 1020.47 571.022C1020.47 570.419 1019.98 569.931 1019.38 569.931C1018.78 569.931 1018.29 570.419 1018.29 571.022C1018.29 571.624 1018.78 572.112 1019.38 572.112Z" fill="#F2F2F2"/>
<path d="M1009.86 570.831C1010.46 570.831 1010.95 570.342 1010.95 569.74C1010.95 569.138 1010.46 568.65 1009.86 568.65C1009.26 568.65 1008.77 569.138 1008.77 569.74C1008.77 570.342 1009.26 570.831 1009.86 570.831Z" fill="#F2F2F2"/>
<path d="M1021.49 568.65C1022.09 568.65 1022.58 568.161 1022.58 567.559C1022.58 566.957 1022.09 566.469 1021.49 566.469C1020.89 566.469 1020.4 566.957 1020.4 567.559C1020.4 568.161 1020.89 568.65 1021.49 568.65Z" fill="#F2F2F2"/>
<path d="M1009.2 566.902C1009.8 566.902 1010.29 566.414 1010.29 565.812C1010.29 565.209 1009.8 564.721 1009.2 564.721C1008.6 564.721 1008.11 565.209 1008.11 565.812C1008.11 566.414 1008.6 566.902 1009.2 566.902Z" fill="#F2F2F2"/>
<path d="M1018.29 576.168C1018.89 576.168 1019.38 575.68 1019.38 575.077C1019.38 574.475 1018.89 573.987 1018.29 573.987C1017.69 573.987 1017.2 574.475 1017.2 575.077C1017.2 575.68 1017.69 576.168 1018.29 576.168Z" fill="#F2F2F2"/>
<path d="M1009.86 574.759C1010.46 574.759 1010.95 574.271 1010.95 573.669C1010.95 573.066 1010.46 572.578 1009.86 572.578C1009.26 572.578 1008.77 573.066 1008.77 573.669C1008.77 574.271 1009.26 574.759 1009.86 574.759Z" fill="#F2F2F2"/>
<path d="M937.375 591.523L922.545 596.539C922.545 596.539 914.693 588.687 916.874 586.288C917.804 585.263 918.615 581.861 919.234 578.293C919.435 577.168 919.614 576.02 919.771 574.93C920.286 571.384 920.582 568.405 920.582 568.405C920.582 568.405 937.812 560.117 934.976 568.405C934.271 570.752 933.995 573.208 934.161 575.654C934.283 578.093 934.59 580.52 935.081 582.912C935.66 585.829 936.426 588.705 937.375 591.523V591.523Z" fill="#FBBEBE"/>
<path opacity="0.1" d="M937.375 591.523L922.545 596.539C922.545 596.539 914.693 588.687 916.874 586.288C917.804 585.263 918.615 581.861 919.234 578.293C920.076 579.797 920.661 581.43 920.966 583.126C933.777 590.162 933.995 585.961 933.995 585.961C934.139 584.88 934.509 583.841 935.081 582.912C935.66 585.829 936.426 588.705 937.375 591.523V591.523Z" fill="black"/>
<path d="M940.647 602.973C940.647 602.973 938.082 604.879 930.562 605.153C928.593 605.228 926.632 605.448 924.696 605.814C916.767 607.355 908.638 607.574 900.638 606.464C898.577 606.186 896.533 605.785 894.52 605.263C886.777 603.134 892.666 598.231 892.666 598.231C892.666 598.231 893.037 597.908 893.678 597.424C895.318 596.194 898.72 593.926 902.21 593.376C907.06 592.613 911.531 583.998 911.531 583.998L914.584 578.489C919.326 574.402 920.966 583.998 920.966 583.998C933.777 591.034 933.995 586.833 933.995 586.833C934.706 583.069 936.015 583.069 936.015 583.069C936.015 583.069 939.207 591.666 940.363 593.813C940.44 593.969 940.535 594.115 940.647 594.249C941.41 595.012 940.647 602.973 940.647 602.973Z" fill="#3F3D56"/>
<path d="M920.909 588.687C921.511 588.687 922 588.199 922 587.597C922 586.995 921.511 586.506 920.909 586.506C920.307 586.506 919.819 586.995 919.819 587.597C919.819 588.199 920.307 588.687 920.909 588.687Z" fill="#F2F2F2"/>
<path d="M914.664 591.741C915.266 591.741 915.754 591.253 915.754 590.65C915.754 590.048 915.266 589.56 914.664 589.56C914.062 589.56 913.573 590.048 913.573 590.65C913.573 591.253 914.062 591.741 914.664 591.741Z" fill="#F2F2F2"/>
<path d="M918.021 590.177C918.623 590.177 919.112 589.689 919.112 589.086C919.112 588.484 918.623 587.996 918.021 587.996C917.419 587.996 916.931 588.484 916.931 589.086C916.931 589.689 917.419 590.177 918.021 590.177Z" fill="#F2F2F2"/>
<path d="M911.15 593.54C911.752 593.54 912.24 593.052 912.24 592.45C912.24 591.847 911.752 591.359 911.15 591.359C910.547 591.359 910.059 591.847 910.059 592.45C910.059 593.052 910.547 593.54 911.15 593.54Z" fill="#F2F2F2"/>
<path opacity="0.1" d="M934.976 568.405C934.271 570.752 933.995 573.208 934.161 575.654C930.292 574.354 923.954 574.581 919.771 574.93C920.286 571.384 920.582 568.405 920.582 568.405C920.582 568.405 937.812 560.117 934.976 568.405Z" fill="black"/>
<path opacity="0.1" d="M1025.1 544.597C1019.74 549.853 1014.61 550.181 1011.03 548.667L1012.18 538.962C1012.18 538.962 1024.57 532.654 1023.74 535.036C1023.43 535.926 1024.12 539.93 1025.1 544.597Z" fill="black"/>
<path d="M931.052 365.576C931.052 365.576 922.545 370.374 921.018 379.752C919.492 389.13 916.875 401.126 914.912 403.307C912.949 405.488 906.842 412.467 909.241 416.174C911.64 419.882 912.076 432.531 912.076 432.531C912.076 432.531 911.204 443.872 913.603 447.58C916.002 451.287 917.965 474.842 912.731 481.821C912.731 481.821 910.986 497.96 911.64 499.486C912.295 501.013 908.805 504.939 909.895 508.21C910.986 511.482 916.22 571.676 915.566 574.075C915.566 574.075 932.141 571.676 936.503 575.602C936.503 575.602 937.375 569.059 936.503 564.479C935.631 559.899 937.157 541.797 939.12 537.217C941.083 532.637 941.519 515.189 940.865 513.445C940.865 513.445 944.354 497.96 943.046 494.906C941.737 491.853 948.716 463.719 948.716 463.719C948.716 463.719 952.206 456.958 951.334 456.086C951.334 456.086 957.004 452.378 956.35 449.543C955.695 446.708 961.584 443.436 961.584 443.436C961.584 443.436 966.818 456.304 968.563 458.267C970.308 460.229 970.376 472.879 972.523 475.496C974.67 478.113 977.505 491.853 980.34 495.561C983.175 499.268 994.516 509.083 996.261 520.205C996.261 520.205 1006.51 536.126 1006.08 541.143C1005.64 546.159 1017.63 555.319 1029.19 538.307C1027.26 536.872 1025.69 534.995 1024.63 532.832C1023.57 530.67 1023.04 528.285 1023.09 525.876C1023.09 517.37 1013.93 490.108 1013.93 490.108C1013.93 490.108 1008.69 482.475 1010.66 478.767C1012.62 475.06 1010.87 464.155 1010.87 464.155L1015.02 457.394C1015.02 457.394 1015.67 450.851 1016.33 444.09C1016.98 437.329 1012.4 429.914 1014.58 426.643C1016.76 423.371 1013.71 407.026 1013.71 407.026C1013.71 407.026 1010.99 378.851 1006.95 377.135C1002.9 375.419 931.052 365.576 931.052 365.576Z" fill="#A84B62"/>
<path d="M950.923 326.101C950.923 326.101 946.444 326.611 941.005 327.126C933.136 327.868 923.256 328.618 922.078 327.846C920.089 326.537 922.078 309.962 922.078 309.962C922.078 309.962 922.763 291.86 922.109 279.211C921.577 268.947 928.372 261.41 930.95 258.932C931.552 258.356 931.923 258.055 931.923 258.055L934.104 259.8L946.535 280.955L950.923 326.101Z" fill="#FBBEBE"/>
<path d="M999.532 256.529L987.319 263.944L967.254 279.211C967.254 279.211 946.535 268.306 951.77 261.981C952.745 260.731 953.402 259.262 953.685 257.702C955.259 250.418 951.77 239.954 951.77 239.954C951.77 239.954 979.066 203.091 977.505 231.666C976.877 243.147 980.31 249.415 984.641 252.808C991.092 257.859 999.532 256.529 999.532 256.529Z" fill="#FBBEBE"/>
<path opacity="0.1" d="M999.532 256.529L987.319 263.944L967.254 279.211C967.254 279.211 946.535 268.306 951.77 261.981C952.745 260.731 953.402 259.262 953.685 257.702C955.259 250.418 951.77 239.954 951.77 239.954C951.77 239.954 979.066 203.091 977.505 231.666C976.877 243.147 980.31 249.415 984.641 252.808C991.092 257.859 999.532 256.529 999.532 256.529Z" fill="black"/>
<path opacity="0.1" d="M962.061 250.508C976.011 250.508 987.319 238.527 987.319 223.748C987.319 208.969 976.011 196.989 962.061 196.989C948.111 196.989 936.802 208.969 936.802 223.748C936.802 238.527 948.111 250.508 962.061 250.508Z" fill="black"/>
<path d="M962.061 249.636C976.011 249.636 987.319 237.655 987.319 222.876C987.319 208.097 976.011 196.116 962.061 196.116C948.111 196.116 936.802 208.097 936.802 222.876C936.802 237.655 948.111 249.636 962.061 249.636Z" fill="#FBBEBE"/>
<path opacity="0.1" d="M999.532 256.529L987.319 263.944L967.254 279.211C967.254 279.211 946.535 268.306 951.77 261.981C952.745 260.731 953.402 259.262 953.685 257.702C976.541 277.243 983.485 257.017 984.641 252.808C991.092 257.859 999.532 256.529 999.532 256.529Z" fill="black"/>
<path opacity="0.1" d="M950.923 326.101C950.923 326.101 946.444 326.611 941.005 327.126C940.791 322.433 940.08 317.124 940.211 313.888C940.429 308.435 940.429 307.781 938.684 304.728C936.939 301.674 937.157 299.275 937.375 295.35C937.585 291.59 936.59 290.831 933.053 284.824C932.9 284.563 932.743 284.292 932.577 284.009C930.841 281.016 930.344 275.603 930.327 270.491C930.331 270.473 930.331 270.453 930.327 270.434C930.322 269.217 930.344 268.018 930.388 266.875C930.392 266.827 930.392 266.779 930.392 266.731C930.518 263.277 930.802 260.332 930.95 258.932C931.552 258.356 931.923 258.055 931.923 258.055L934.104 259.8L946.535 280.955L950.923 326.101Z" fill="black"/>
<path d="M1015.4 259.75C1015.38 259.741 1018.04 261.746 1018.02 261.741C1010.12 258.335 1005.64 275.494 1004.44 280.894C1004.22 281.889 1004.11 282.482 1004.11 282.482C1004.11 282.482 1004.25 283.93 1004.43 286.233C1005.02 293.945 1006.03 311.214 1003.68 315.414C1003.44 315.858 1003.25 316.328 1003.11 316.815C1002.37 319.366 1002.46 323.2 1002.84 326.926C1003.27 330.755 1003.91 334.558 1004.77 338.314C1004.77 338.314 1010 351.618 1007.82 360.342C1007.1 363.587 1006.89 366.924 1007.18 370.235C1007.41 373.274 1007.87 376.292 1008.57 379.26C1008.77 380.128 1008.91 380.625 1008.91 380.625C1005.62 381.75 1002.41 382.684 999.266 383.425C993.15 384.892 986.901 385.738 980.615 385.951C951.124 386.889 931.487 372.756 926.85 368.904C926.484 368.599 926.209 368.359 926.034 368.193C922.981 365.358 928.87 363.177 928.215 361.214C927.561 359.252 931.199 354.89 931.199 354.89C931.199 354.89 930.396 347.693 933.668 346.166C936.939 344.639 939.338 339.405 941.183 335.043C943.024 330.681 940.865 319.34 941.083 313.888C941.301 308.435 941.301 307.781 939.556 304.728C937.812 301.674 938.03 299.275 938.248 295.35C938.457 291.59 937.463 290.831 933.925 284.824C933.772 284.563 933.615 284.292 933.45 284.009C931.714 281.017 934.419 275.862 934.402 270.75C934.406 270.733 935.406 270.767 935.402 270.75C935.397 269.533 933.358 267.893 933.402 266.75C933.406 266.702 932.402 265.798 932.402 265.75C932.549 263.175 932.388 260.592 931.923 258.055C949.371 249.114 953.514 258.431 953.514 258.431C979.032 280.393 984.824 252.948 984.824 252.948C998.712 248.202 1016.98 260.987 1018.02 261.728C1018.05 261.75 1015.4 259.75 1015.4 259.75Z" fill="#55536E"/>
<path d="M921.782 323.878C921.782 323.878 919.599 335.525 925.912 342.023C926.958 343.094 928.315 343.807 929.79 344.061C931.265 344.314 932.782 344.095 934.125 343.435C936.222 342.404 938.567 340.874 939.447 338.911C941.182 335.043 935.74 316.135 921.782 323.878Z" fill="#FBBEBE"/>
<path opacity="0.1" d="M1003.68 315.415C1003.44 315.858 1003.25 316.328 1003.11 316.815L1004.11 291.315L1004.43 286.233C1005.02 293.945 1006.03 311.214 1003.68 315.415Z" fill="black"/>
<path opacity="0.1" d="M1007.82 360.342C1007.1 363.587 1006.89 366.924 1007.18 370.235C1005.77 372.795 1004.56 374.968 1003.78 376.381C1003.16 377.48 1002.8 378.117 1002.8 378.117C1001.49 379.792 1000.31 381.567 999.266 383.425C998.456 384.734 997.951 386.208 997.788 387.739C997.788 391.093 994.407 413.448 978.377 407.887C968.026 404.297 974.635 393.296 980.615 385.951C982.605 383.51 984.735 381.186 986.992 378.989C986.992 378.989 988.841 376.634 990.617 374.169C991.828 372.614 992.878 370.941 993.753 369.175C994.516 366.994 999.55 357.398 999.55 357.398C999.55 357.398 1004.55 346.82 1003.46 341.913C1002.85 339.165 1002.78 332.374 1002.84 326.926C1003.27 330.755 1003.91 334.558 1004.77 338.314C1004.77 338.314 1010 351.618 1007.82 360.342Z" fill="black"/>
<path d="M1018.07 261.763C1018.07 261.763 1025.92 267.216 1025.7 281.392C1025.49 295.568 1022.87 320.104 1022.87 320.104L1021.23 335.37C1021.23 335.37 1019.16 341.586 1019.49 343.44C1019.82 345.294 1002.37 376.372 1002.37 376.372C1002.37 376.372 997.352 382.644 997.352 385.996C997.352 389.349 993.971 411.704 977.941 406.142C961.911 400.581 986.556 377.245 986.556 377.245C986.556 377.245 992.553 369.611 993.317 367.43C994.08 365.249 999.116 355.653 999.116 355.653C999.116 355.653 1004.11 345.076 1003.02 340.168C1001.93 335.261 1002.59 317.445 1002.59 317.445L1003.68 289.57L1004.11 282.482C1004.11 282.482 1008.15 258.928 1018.07 261.763Z" fill="#FBBEBE"/>
<path d="M934.786 313.799L946.687 309.476C947.668 309.12 948.73 309.043 949.752 309.255C950.775 309.467 951.719 309.958 952.478 310.675L968.272 325.592C968.272 325.592 969.145 327.987 967.981 327.88C966.818 327.773 949.807 310.762 949.807 310.762L932.941 316.432C932.941 315.857 933.118 315.296 933.448 314.825C933.778 314.354 934.245 313.996 934.786 313.799V313.799Z" fill="#113399"/>
<path d="M951.624 333.807L967.981 327.88L949.807 310.762L932.941 316.432L951.624 333.807Z" fill="#4B4B5B"/>
<path d="M927.052 382.806C927.855 382.806 928.506 382.155 928.506 381.352C928.506 380.549 927.855 379.898 927.052 379.898C926.249 379.898 925.598 380.549 925.598 381.352C925.598 382.155 926.249 382.806 927.052 382.806Z" fill="#F2F2F2"/>
<path d="M917.165 401.488C917.968 401.488 918.619 400.837 918.619 400.034C918.619 399.231 917.968 398.58 917.165 398.58C916.362 398.58 915.711 399.231 915.711 400.034C915.711 400.837 916.362 401.488 917.165 401.488Z" fill="#F2F2F2"/>
<path d="M996.146 408.28C996.949 408.28 997.6 407.629 997.6 406.826C997.6 406.023 996.949 405.372 996.146 405.372C995.343 405.372 994.692 406.023 994.692 406.826C994.692 407.629 995.343 408.28 996.146 408.28Z" fill="#F2F2F2"/>
<path d="M1004.37 434.673C1005.17 434.673 1005.82 434.022 1005.82 433.219C1005.82 432.416 1005.17 431.765 1004.37 431.765C1003.57 431.765 1002.92 432.416 1002.92 433.219C1002.92 434.022 1003.57 434.673 1004.37 434.673Z" fill="#F2F2F2"/>
<path d="M1001.17 427.245C1001.97 427.245 1002.62 426.594 1002.62 425.791C1002.62 424.988 1001.97 424.337 1001.17 424.337C1000.36 424.337 999.713 424.988 999.713 425.791C999.713 426.594 1000.36 427.245 1001.17 427.245Z" fill="#F2F2F2"/>
<path d="M998.387 417.762C999.19 417.762 999.841 417.111 999.841 416.308C999.841 415.505 999.19 414.854 998.387 414.854C997.584 414.854 996.933 415.505 996.933 416.308C996.933 417.111 997.584 417.762 998.387 417.762Z" fill="#F2F2F2"/>
<path d="M921.781 391.65C922.584 391.65 923.235 390.999 923.235 390.196C923.235 389.393 922.584 388.742 921.781 388.742C920.978 388.742 920.327 389.393 920.327 390.196C920.327 390.999 920.978 391.65 921.781 391.65Z" fill="#F2F2F2"/>
<path d="M911.398 411.188C912.201 411.188 912.852 410.537 912.852 409.734C912.852 408.931 912.201 408.28 911.398 408.28C910.595 408.28 909.944 408.931 909.944 409.734C909.944 410.537 910.595 411.188 911.398 411.188Z" fill="#F2F2F2"/>
<path d="M1018.02 261.728L1018.02 261.741C1010.12 258.335 1005.64 275.494 1004.44 280.894L992.043 263.146C992.043 263.146 986.957 271.285 970.526 272.524C954.095 273.758 950.099 260.018 950.099 260.018C947.844 259.844 937.633 278.225 933.925 284.824C933.772 284.563 933.615 284.292 933.45 284.009C931.714 281.017 931.216 275.603 931.199 270.491C931.203 270.473 931.203 270.453 931.199 270.435C931.212 269.248 931.234 268.057 931.26 266.875C931.264 266.827 931.264 266.779 931.264 266.731C931.443 261.89 931.923 258.056 931.923 258.056C949.371 249.114 953.514 258.431 953.514 258.431C979.032 280.393 984.824 252.948 984.824 252.948C998.712 248.202 1016.98 260.987 1018.02 261.728Z" fill="#113399"/>
<path opacity="0.1" d="M921.236 421.19C921.454 421.736 939.774 442.891 946.535 443.981C953.296 445.072 921.236 421.19 921.236 421.19Z" fill="black"/>
<path opacity="0.1" d="M934.354 388.742C934.354 388.742 934.54 403.658 929.96 407.026C925.38 410.395 934.354 388.742 934.354 388.742Z" fill="black"/>
<path opacity="0.1" d="M942.828 394.038C942.828 394.038 942.392 411.594 948.934 415.738C948.934 415.738 936.939 404.07 942.828 394.038Z" fill="black"/>
<path opacity="0.1" d="M934.758 484.22C934.758 484.22 922.545 493.271 919.164 493.925C915.784 494.58 934.758 484.22 934.758 484.22Z" fill="black"/>
<path opacity="0.1" d="M931.709 207.271C929.078 209.489 930.026 214.091 932.714 216.239C935.402 218.387 939.078 218.716 942.518 218.805C949.139 218.976 955.867 218.592 962.287 220.22C965.119 220.807 967.739 222.15 969.87 224.105C971.845 226.33 973.204 229.033 973.811 231.945C974.936 236.231 975.391 240.664 975.16 245.088C975.003 248.062 974.538 251.054 974.965 254.001C975.495 256.768 976.432 259.44 977.746 261.931C982.796 272.644 988.42 283.077 994.594 293.185C995.082 294.178 995.843 295.012 996.789 295.587C998.364 296.347 1000.22 295.577 1001.79 294.812C1000.87 291.734 1000.35 288.551 1000.25 285.341C1001.06 285.557 1001.92 285.523 1002.72 285.245C1003.52 284.966 1004.22 284.455 1004.72 283.778C1005.7 282.405 1006.4 280.846 1006.76 279.195L1009.69 269.084C1010.6 265.957 1011.95 262.368 1015.07 261.448C1016.19 261.288 1017.29 261.031 1018.37 260.679C1019.08 260.26 1019.65 259.643 1020.01 258.904C1020.37 258.165 1020.51 257.336 1020.4 256.52C1020.17 254.887 1019.49 253.351 1018.44 252.079C1014.02 246.139 1006.66 242.616 1003.21 236.066C1000.25 230.441 1000.77 223.673 1001.74 217.392C1002.72 211.112 1004.08 204.655 1002.58 198.479C1001.06 192.844 997.615 187.917 992.85 184.547C988.097 181.217 982.664 178.984 976.943 178.007C974.303 177.335 971.534 177.354 968.903 178.061C966.92 178.732 965.221 180.055 963.286 180.851C958.889 182.662 953.82 181.581 949.206 182.733C944.964 183.951 941.28 186.612 938.792 190.257C936.336 193.885 934.494 197.892 933.339 202.118C932.489 204.891 933.852 206 931.374 207.508" fill="black"/>
<path d="M932.145 206.399C929.514 208.616 930.462 213.219 933.15 215.366C935.839 217.514 939.514 217.844 942.954 217.932C949.575 218.103 956.303 217.719 962.723 219.348C965.555 219.935 968.175 221.277 970.306 223.232C972.281 225.458 973.64 228.16 974.248 231.073C975.372 235.358 975.827 239.791 975.596 244.216C975.439 247.189 974.974 250.182 975.401 253.129C975.931 255.895 976.869 258.567 978.182 261.058C983.232 271.772 988.856 282.205 995.03 292.312C995.518 293.306 996.28 294.139 997.225 294.715C998.8 295.475 1000.65 294.704 1002.22 293.94C1001.31 290.862 1000.79 287.679 1000.68 284.469C1001.5 284.684 1002.36 284.651 1003.16 284.372C1003.96 284.094 1004.65 283.583 1005.16 282.905C1006.14 281.532 1006.83 279.973 1007.2 278.323L1010.13 268.211C1011.04 265.084 1012.38 261.496 1015.51 260.575C1016.63 260.415 1017.73 260.158 1018.8 259.807C1019.51 259.387 1020.08 258.77 1020.44 258.031C1020.81 257.292 1020.94 256.463 1020.84 255.647C1020.6 254.014 1019.92 252.478 1018.87 251.207C1014.46 245.266 1007.09 241.744 1003.65 235.194C1000.69 229.569 1001.2 222.8 1002.18 216.52C1003.16 210.239 1004.51 203.782 1003.01 197.606C1001.49 191.972 998.052 187.044 993.286 183.675C988.533 180.345 983.1 178.111 977.379 177.134C974.739 176.463 971.97 176.481 969.339 177.189C967.356 177.859 965.658 179.182 963.722 179.979C959.325 181.789 954.256 180.708 949.642 181.86C945.4 183.078 941.717 185.739 939.228 189.384C936.772 193.012 934.93 197.019 933.775 201.245C932.925 204.018 934.288 205.128 931.81 206.636" fill="#3F3D56"/>
<path d="M929.415 325.229C929.415 325.229 949.371 311.925 955.041 320.104C960.712 328.282 937.484 338.314 937.484 338.314L929.415 325.229Z" fill="#FBBEBE"/>
<path d="M935.937 262.009C935.864 263.292 935.618 264.864 934.904 265.097C936.766 265.052 938.601 266.422 940.449 266.013C941.825 265.708 943.119 264.373 943.95 262.403C944.033 262.108 944.195 261.842 944.418 261.632C944.612 261.519 944.823 261.632 945.017 261.747C948.627 263.903 951.993 266.443 955.056 269.324C956.078 270.277 957.213 271.308 958.333 270.811C958.385 267.199 957.654 263.619 956.191 260.317C955.011 257.669 953.006 255.475 950.474 254.062C948.373 253.036 946.087 252.441 943.752 252.313C942.744 252.292 941.754 252.046 940.854 251.592C939.863 251.01 936.697 247.227 935.987 249.982C935.644 251.311 936.086 254.144 936.096 255.615C936.111 257.75 936.058 259.885 935.937 262.009Z" fill="#3F3D56"/>
<g opacity="0.1">
<path opacity="0.1" d="M999.092 292.534C998.147 291.958 997.385 291.125 996.897 290.132C990.723 280.024 985.1 269.591 980.05 258.878C978.736 256.386 977.798 253.714 977.268 250.948C976.841 248.001 977.307 245.009 977.463 242.035C977.694 237.611 977.24 233.177 976.115 228.892C975.507 225.98 974.148 223.277 972.174 221.052C970.043 219.096 967.422 217.754 964.59 217.167C958.171 215.538 951.442 215.922 944.821 215.752C941.381 215.663 937.706 215.333 935.017 213.185C933.976 212.344 933.207 211.212 932.808 209.933C932.409 208.654 932.399 207.286 932.777 206.001C932.604 206.164 932.418 206.313 932.22 206.446C929.653 208.679 930.602 213.233 933.273 215.366C935.961 217.514 939.637 217.844 943.076 217.932C949.697 218.103 956.426 217.719 962.845 219.348C965.677 219.935 968.298 221.277 970.429 223.233C972.403 225.458 973.762 228.161 974.37 231.073C975.495 235.358 975.95 239.791 975.718 244.216C975.562 247.19 975.096 250.182 975.523 253.129C976.054 255.895 976.991 258.567 978.305 261.058C983.355 271.772 988.979 282.205 995.152 292.313C995.641 293.306 996.402 294.139 997.347 294.715C998.922 295.475 1000.77 294.704 1002.35 293.94C1002.22 293.501 1002.1 293.06 1001.98 292.617C1001.04 292.952 1000.01 292.922 999.092 292.534V292.534Z" fill="black"/>
<path opacity="0.1" d="M931.933 206.636C932.038 206.572 932.128 206.509 932.22 206.446C932.237 206.431 932.251 206.414 932.268 206.399L931.933 206.636Z" fill="black"/>
<path opacity="0.1" d="M933.965 204.265C933.873 204.328 933.783 204.39 933.678 204.455L934.013 204.218C933.995 204.232 933.982 204.25 933.965 204.265C936.034 202.85 934.829 201.719 935.642 199.064C936.783 194.916 938.58 190.978 940.965 187.397C940.39 188.029 939.852 188.693 939.351 189.385C936.895 193.012 935.052 197.019 933.897 201.245C933.642 202.407 933.499 203.591 933.47 204.78C933.62 204.595 933.786 204.422 933.965 204.265Z" fill="black"/>
<path opacity="0.1" d="M1020.67 257.626C1019.6 257.977 1018.49 258.234 1017.37 258.394C1015.78 258.942 1014.47 260.101 1013.72 261.616C1014.28 261.14 1014.93 260.785 1015.63 260.575C1016.75 260.415 1017.85 260.158 1018.93 259.807C1019.36 259.575 1019.74 259.26 1020.05 258.879C1020.36 258.499 1020.59 258.061 1020.73 257.591C1020.71 257.602 1020.69 257.615 1020.67 257.626Z" fill="black"/>
<path opacity="0.1" d="M1002.55 282.288C1002.57 283.044 1002.62 283.799 1002.69 284.552C1003.71 284.293 1004.62 283.716 1005.28 282.905C1005.62 282.489 1005.91 282.037 1006.15 281.557C1005.65 281.965 1005.07 282.246 1004.44 282.373C1003.81 282.501 1003.16 282.472 1002.55 282.288V282.288Z" fill="black"/>
</g>
<path opacity="0.1" d="M924.588 322.633C924.588 322.633 929.85 320.503 932.941 320.976Z" fill="black"/>
<path opacity="0.1" d="M939.759 346.602C939.759 346.602 942.43 350.746 955.933 352.491C969.435 354.235 939.759 346.602 939.759 346.602Z" fill="black"/>
<path opacity="0.1" d="M934.904 362.087C934.904 362.087 947.049 372.773 966.53 368.848C986.011 364.922 934.904 362.087 934.904 362.087Z" fill="black"/>
<path d="M880.402 611.75L1080.4 580.75" stroke="#3F3D56" stroke-miterlimit="10"/>
<path d="M181.31 275.123C181.31 301.255 198.479 323.836 223.374 334.539L187.772 248.256C183.536 256.579 181.322 265.784 181.31 275.123ZM306.329 271.792C306.329 263.633 303.016 257.983 300.174 253.585C296.391 248.147 292.846 243.542 292.846 238.104C292.846 232.035 298.048 226.386 305.378 226.386C305.709 226.386 306.023 226.422 306.346 226.439C292.022 215.069 274.233 208.952 255.945 209.109C229.871 209.109 206.931 220.942 193.586 238.865C195.337 238.911 196.989 238.943 198.389 238.943C206.196 238.943 218.28 238.105 218.28 238.105C222.303 237.895 222.777 243.122 218.76 243.543C218.76 243.543 214.715 243.964 210.216 244.172L237.395 315.68L253.73 272.351L242.1 244.171C238.081 243.962 234.274 243.542 234.274 243.542C230.252 243.333 230.723 237.894 234.745 238.104C234.745 238.104 247.071 238.941 254.404 238.941C262.209 238.941 274.295 238.104 274.295 238.104C278.321 237.894 278.794 243.121 274.774 243.542C274.774 243.542 270.722 243.962 266.231 244.171L293.203 315.137L300.646 293.133C303.874 284.002 306.329 277.443 306.329 271.792H306.329Z" fill="#113399"/>
<path d="M257.255 280.898L234.862 338.453C249.952 342.368 265.835 342.004 280.73 337.402C280.523 337.116 280.345 336.812 280.198 336.492L257.255 280.898ZM321.434 243.45C321.773 245.697 321.941 247.966 321.937 250.238C321.937 256.937 320.522 264.468 316.262 273.884L293.464 332.187C315.653 320.742 330.577 299.479 330.577 275.123C330.558 263.917 327.39 252.942 321.434 243.45L321.434 243.45Z" fill="#113399"/>
</g>
<defs>
<clipPath id="clip0_293_241">
<rect width="1113.89" height="612.244" fill="white"/>
</clipPath>
</defs>
</svg>
